<?xml version="1.0" encoding="UTF-8" standalone="no"?>
<!-- Created with Inkscape (http://www.inkscape.org/) -->

<svg
   xmlns:dc="http://purl.org/dc/elements/1.1/"
   xmlns:cc="http://creativecommons.org/ns#"
   xmlns:rdf="http://www.w3.org/1999/02/22-rdf-syntax-ns#"
   xmlns:svg="http://www.w3.org/2000/svg"
   xmlns="http://www.w3.org/2000/svg"
   xmlns:sodipodi="http://sodipodi.sourceforge.net/DTD/sodipodi-0.dtd"
   xmlns:inkscape="http://www.inkscape.org/namespaces/inkscape"
   width="3000"
   height="3000.0012"
   id="svg2"
   version="1.1"
   inkscape:version="0.48.1 r9760"
   sodipodi:docname="New document 1">
  <defs
     id="defs4" />
  <sodipodi:namedview
     id="base"
     pagecolor="#ffffff"
     bordercolor="#666666"
     borderopacity="1.0"
     inkscape:pageopacity="0.0"
     inkscape:pageshadow="2"
     inkscape:zoom="0.0875"
     inkscape:cx="916.42857"
     inkscape:cy="1494.2862"
     inkscape:document-units="px"
     inkscape:current-layer="layer1"
     showgrid="false"
     fit-margin-top="0"
     fit-margin-left="0"
     fit-margin-right="0"
     fit-margin-bottom="0"
     inkscape:window-width="909"
     inkscape:window-height="848"
     inkscape:window-x="0"
     inkscape:window-y="0"
     inkscape:window-maximized="0" />
  <metadata
     id="metadata7">
    <rdf:RDF>
      <cc:Work
         rdf:about="">
        <dc:format>image/svg+xml</dc:format>
        <dc:type
           rdf:resource="http://purl.org/dc/dcmitype/StillImage" />
        <dc:title></dc:title>
      </cc:Work>
    </rdf:RDF>
  </metadata>
  <g
     inkscape:label="Layer 1"
     inkscape:groupmode="layer"
     id="layer1"
     transform="translate(1122.8571,973.35278)">
    <g
       transform="matrix(3.7253207,0,0,-3.7253207,-2041.8945,2935.6266)"
       inkscape:label="ovenready_logo"
       id="g3042">
      <g
         transform="scale(1,-1)"
         id="g3044">
        <path
           id="path3046"
           style="fill:#ffffff;fill-opacity:1;fill-rule:nonzero;stroke:none"
           d="m 488.61377,-586.0127 c 0,0 0,0.0532 0,0.10645 0.10644,0.5835 0.26514,1.16748 0.4248,1.75195 1.16748,4.56446 3.60889,8.65039 7.16504,12.25977 4.13965,4.08642 8.86328,6.63428 14.27686,7.58984 0,0 0.0532,0.0532 0.0532,0.0532 0,0 4.61719,4.51074 4.61719,4.51074 0,0 -5.41358,3.66211 -5.41358,3.66211 0,0 4.72364,4.56494 4.72364,4.56494 0,0 -5.46631,3.60888 -5.46631,3.60888 0,0 4.72363,4.56446 4.72363,4.56446 0,0 -5.41357,3.66211 -5.41357,3.66211 0,0 4.72363,4.56396 4.72363,4.56396 0,0 0,0 0,0 0,0 -5.46631,3.76856 -5.46631,3.76856 -13.26904,-1.5918 -24.83935,-7.32422 -34.71142,-17.1958 0,0 -0.0527,-0.0532 -0.0527,-0.0532 -7.37744,-7.37744 -12.41943,-15.70996 -15.1792,-24.99804 -0.95556,-3.13184 -1.59277,-6.36914 -2.01709,-9.71289 0,0 3.66211,-5.30713 3.66211,-5.30713 0,0 0.0532,0.0527 0.0532,0.0527 0,0 0.21192,-0.26562 0.21192,-0.26562 0,0 4.51172,4.67138 4.51172,4.67138 0,0 3.4497,-5.14892 3.4497,-5.14892 0,0 0.0532,0.0537 0.0532,0.0537 0,0 0.2124,-0.31885 0.2124,-0.31885 0,0 4.51123,4.6709 4.51123,4.6709 0,0 3.44971,-5.14893 3.44971,-5.14893 0,0 0.0532,0.0532 0.0532,0.0532 0,0 0.15918,-0.26514 0.15918,-0.26514 0,0 4.51123,4.61719 4.51123,4.61719 0,0 3.44971,-5.09473 3.44971,-5.09473 0,0 0.0532,0.0527 0.0532,0.0527 0,0 0.2124,-0.31835 0.2124,-0.31835 0,0 4.40528,4.56445 4.40528,4.56445 0,0.10596 0.0527,0.26562 0.0527,0.42431 z m 18.94824,-65.12255 c 0,0 5.46631,3.76855 5.46631,3.76855 0,0 -4.77686,4.56445 -4.77686,4.56445 0,0 0.0532,0.0532 0.0532,0.0532 0,0 5.41357,3.60937 5.41357,3.60937 0,0 -4.72363,4.56397 -4.72363,4.56397 0,0 5.46631,3.66211 5.46631,3.66211 0,0 -4.72364,4.51171 -4.72364,4.51171 0,0 5.41358,3.66163 5.41358,3.66163 0,0 -4.67041,4.56445 -4.67041,4.56445 -5.46631,0.90283 -10.24317,3.45019 -14.33008,7.58984 -4.19238,4.13965 -6.74023,8.91651 -7.64258,14.43653 0,0 -0.0532,-0.0532 -0.0532,-0.0532 0,0 -4.56445,4.72364 -4.56445,4.72364 0,0 -3.60889,-5.41358 -3.60889,-5.41358 0,0 -4.56445,4.6709 -4.56445,4.6709 0,0 -3.66211,-5.46728 -3.66211,-5.46728 0,0 -4.56446,4.77685 -4.56446,4.77685 0,0 -3.6621,-5.4668 -3.6621,-5.4668 0,0 -4.56446,4.72364 -4.56446,4.72364 0,0 -3.66211,-5.30713 -3.66211,-5.30713 0.58399,-5.36084 1.91065,-10.40283 3.82129,-15.1792 2.97217,-7.21826 7.43018,-13.79981 13.42774,-19.74414 2.86621,-2.91895 5.94433,-5.46631 9.1289,-7.64258 7.6958,-5.25439 16.24072,-8.43848 25.58252,-9.60693 z m 15.17871,8.38623 c 0,0 0,-0.0532 0,-0.0532 0,0 -4.67041,-4.56445 -4.67041,-4.56445 0,0 5.41358,-3.76855 5.41358,-3.76855 9.34131,1.16845 17.833,4.35254 25.47558,9.60693 3.2378,2.17627 6.26319,4.72363 9.18213,7.64258 9.12891,9.1289 14.70166,19.69092 16.77149,31.7915 0,0 0,0.10645 0,0.10645 0.15966,0.95508 0.31836,1.91064 0.4248,2.91894 0,0 -3.76855,5.41358 -3.76855,5.41358 0,0 -4.61768,-4.72364 -4.61768,-4.72364 0,0 -3.60889,5.4668 -3.60889,5.4668 0,0 -4.56396,-4.77685 -4.56396,-4.77685 0,0 -3.6626,5.46728 -3.6626,5.46728 0,0 -4.56445,-4.6709 -4.56445,-4.6709 0,0 -3.66211,5.41358 -3.66211,5.41358 0,0 -4.35205,-4.56446 -4.35205,-4.56446 -0.0532,-0.10595 -0.0532,-0.26513 -0.10645,-0.37158 -0.95459,-5.36035 -3.50244,-10.08398 -7.58935,-14.1709 -4.13965,-4.13965 -8.86328,-6.63476 -14.22364,-7.58984 0,0 -4.72363,-4.56445 -4.72363,-4.56445 0,0 5.41309,-3.66163 5.41309,-3.66163 0,0 -4.67041,-4.51171 -4.67041,-4.51171 0,0 5.41357,-3.66211 5.41357,-3.66211 0,0 -4.72363,-4.56397 -4.72363,-4.56397 0,0 5.41357,-3.60937 5.41357,-3.60937 z m 48.88184,-98.71875 c 0,0 3.71533,5.30761 3.71533,5.30761 -1.38037,11.67627 -5.94434,22.07911 -13.74658,31.10157 -1.11426,1.32714 -2.28223,2.54785 -3.50244,3.82177 -4.72412,4.72315 -9.87207,8.49121 -15.39209,11.35743 -5.99756,3.07861 -12.41944,5.04248 -19.37207,5.83837 0,0 -5.41358,-3.71533 -5.41358,-3.71533 0,0 4.72364,-4.56445 4.72364,-4.56445 0,0 -5.4668,-3.66211 -5.4668,-3.66211 0,0 4.77685,-4.56445 4.77685,-4.56445 0,0 -5.46728,-3.66211 -5.46728,-3.66211 0,0 4.6709,-4.51123 4.6709,-4.51123 0,0 -5.41358,-3.66211 -5.41358,-3.66211 0,0 4.72364,-4.56494 4.72364,-4.56494 5.41406,-0.95459 10.19043,-3.50245 14.33007,-7.58887 4.14014,-4.14014 6.68799,-8.96973 7.58985,-14.43652 0,0 0.0527,0 0.0527,0 0,0 4.56494,-4.67041 4.56494,-4.67041 0,0 3.60889,5.41308 3.60889,5.41308 0,0 4.61768,-4.67041 4.61768,-4.67041 0,0 3.60937,5.41358 3.60937,5.41358 0,0 4.56445,-4.72364 4.56445,-4.72364 0,0 3.66163,5.4668 3.66163,5.4668 0,0 4.56445,-4.72363 4.56445,-4.72363 z m 141.39062,161.98339 c 0,0 -0.0532,-0.10546 -0.0532,-0.10546 -0.15918,-1.00879 -0.26562,-1.96436 -0.37158,-2.91944 0,0 3.76855,-5.41357 3.76855,-5.41357 0,0 4.56397,4.72363 4.56397,4.72363 0,0 3.66211,-5.4668 3.66211,-5.4668 0,0 4.56494,4.72364 4.56494,4.72364 0,0 3.66211,-5.41407 3.66211,-5.41407 0,0 4.51123,4.6709 4.51123,4.6709 0,0 3.66211,-5.41357 3.66211,-5.41357 0,0 4.40527,4.51123 4.40527,4.51123 0,0.15918 0.0532,0.31885 0.0532,0.4248 0,0.0527 0,0.10596 0.0527,0.15918 0.10596,0.58399 0.2124,1.16748 0.37158,1.69825 1.16797,4.61718 3.60889,8.70459 7.21826,12.31347 4.08643,4.08692 8.81055,6.63428 14.22364,7.58936 0,0 0,0 0,0 0,0 4.72363,4.61767 4.72363,4.61767 0,0 -5.41309,3.60938 -5.41309,3.60938 0,0 4.67041,4.51123 4.67041,4.51123 0,0 -5.46679,3.66211 -5.46679,3.66211 0,0 4.72314,4.56445 4.72314,4.56445 0,0 -5.41309,3.60889 -5.41309,3.60889 0,0 0,0.0527 0,0.0527 0,0 4.72364,4.56446 4.72364,4.56446 0,0 -5.4668,3.71582 -5.4668,3.71582 -12.9502,-1.59229 -24.30811,-7.11231 -34.02051,-16.6128 -0.2124,-0.21191 -0.4248,-0.42431 -0.58398,-0.58349 -9.18213,-9.12891 -14.75488,-19.74414 -16.77149,-31.792 z m -16.08203,-5.83837 c 0,0 4.14063,-5.09522 4.14063,-5.09522 0,0 4.08593,5.09522 4.08593,5.09522 0,0 0,49.67822 0,49.67822 0,0 -4.08593,5.04199 -4.08593,5.04199 0,0 -4.03418,-4.93603 -4.03418,-4.93603 0,0 0.0532,-0.0527 0.0532,-0.0527 0,0 -0.0532,0 -0.0532,0 0,0 -0.0532,0.0527 -0.0532,0.0527 -0.10596,0.0532 -0.15918,0.10595 -0.21192,0.10595 0,0 -3.92773,4.83008 -3.92773,4.83008 0,0 -2.28223,-2.81299 -2.28223,-2.81299 0,0 0.0527,-0.0532 0.0527,-0.0532 0,0 -0.0527,0 -0.10546,0 0,0 -1.75196,-2.17578 -1.75196,-2.17578 0,0 -0.0527,0 -0.0527,0 0,0 -4.08692,5.04199 -4.08692,5.04199 0,0 -3.76806,-4.61767 -3.76806,-4.61767 0,0 0.0527,-0.0527 0.0527,-0.0527 -0.0527,-0.0532 -0.10595,-0.10644 -0.15918,-0.10644 0,0 0,0 -0.0532,0 -0.10596,-0.0532 -0.21191,-0.15918 -0.26514,-0.21192 0,0 -0.0532,0 -0.0532,0 0,0 -4.03369,4.98877 -4.03369,4.98877 0,0 -4.08643,-5.04199 -4.08643,-5.04199 0,0 -0.0532,0 -0.0532,0 0,0 0.0532,-8.27979 0.0532,-8.27979 0,0 0,0 0,0 0,-0.2124 0,-0.42431 0,-0.63672 0,0 0,-40.81445 0,-40.81445 0,0 4.08643,-5.04248 4.08643,-5.04248 0,0 4.08691,5.09522 4.08691,5.09522 0,0 0.10596,0 0.10596,0 0,0 4.08691,-5.09522 4.08691,-5.09522 0,0 4.08692,5.09522 4.08692,5.09522 0,0 0.0527,0 0.0527,0 0,0 4.08692,-5.09522 4.08692,-5.09522 0,0 4.08642,5.09522 4.08642,5.09522 z m 15.65723,-12.68457 c 0.10596,-0.95508 0.2124,-1.96387 0.37158,-2.86573 0,0 0.0532,-0.15966 0.0532,-0.15966 2.01661,-12.04737 7.58936,-22.6626 16.77149,-31.79151 2.97217,-2.97266 6.15674,-5.62598 9.50049,-7.85449 7.53613,-5.09522 15.92187,-8.22705 25.15722,-9.34131 0,0 5.41358,3.71484 5.41358,3.71484 0,0 -4.72364,4.56446 -4.72364,4.56446 0,0 5.4668,3.66211 5.4668,3.66211 0,0 -4.77685,4.56445 -4.77685,4.56445 0,0 5.46679,3.66211 5.46679,3.66211 0,0 -4.67041,4.51172 -4.67041,4.51172 0,0 5.41309,3.66211 5.41309,3.66211 0,0 -4.72363,4.56396 -4.72363,4.56396 -5.36036,0.95557 -10.13721,3.50293 -14.22364,7.58985 -4.08691,4.08691 -6.63427,8.81054 -7.64258,14.17089 0,0.10645 0,0.26563 -0.0532,0.42432 0,0 -4.40527,4.51123 -4.40527,4.51123 0,0 -3.66211,-5.41308 -3.66211,-5.41308 0,0 -4.51123,4.72363 -4.51123,4.72363 0,0 -3.66211,-5.46631 -3.66211,-5.46631 0,0 -4.56494,4.72314 -4.56494,4.72314 0,0 -3.60889,-5.41357 -3.60889,-5.41357 0,0 -0.0532,0 -0.0532,0 0,0 -4.56397,4.72363 -4.56397,4.72363 0,0 -3.76855,-5.46679 -3.76855,-5.46679 z m -72.49951,34.33935 c 0,0 4.72363,4.56445 4.72363,4.56445 0,0 -5.41406,3.60938 -5.41406,3.60938 0,0 4.72363,4.56445 4.72363,4.56445 0,0 -5.46631,3.66162 -5.46631,3.66162 0,0 4.72315,4.51123 4.72315,4.51123 0,0 -5.41309,3.66211 -5.41309,3.66211 0,0 -0.0532,0 -0.0532,0 0,0 4.72363,4.56494 4.72363,4.56494 0,0 -5.41406,3.76807 -5.41406,3.76807 -13.00293,-1.5918 -24.30762,-7.16504 -34.02002,-16.61279 -0.2124,-0.21192 -0.42481,-0.42432 -0.63721,-0.63623 -9.1289,-9.12891 -14.70166,-19.69092 -16.77148,-31.73877 0,0 0,-0.15918 0,-0.15918 -0.15967,-0.95557 -0.31836,-1.91065 -0.42481,-2.91895 0,0 3.76856,-5.41357 3.76856,-5.41357 0,0 4.61718,4.72314 4.61718,4.72314 0,0 3.60938,-5.41357 3.60938,-5.41357 0,0 4.56396,4.72412 4.56396,4.72412 0,0 3.6626,-5.4668 3.6626,-5.4668 0,0 4.56397,4.72315 4.56397,4.72315 0,0 3.60937,-5.4668 3.60937,-5.4668 0,0 4.45801,4.56494 4.45801,4.56494 0,0.10596 0,0.26514 0.0537,0.42432 0,0 0,0.0532 0,0.10596 0.10547,0.58398 0.26514,1.16845 0.37109,1.75195 1.22071,4.56396 3.60938,8.65088 7.21827,12.26025 4.08691,4.13965 8.86377,6.6875 14.22412,7.58936 0,0 0,0.0532 0,0.0532 z m -2.8667,-86.6709 c 0,0 5.46728,3.76807 5.46728,3.76807 0,0 -4.77685,4.56494 -4.77685,4.56494 0,0 5.46631,3.66211 5.46631,3.66211 0,0 -4.72315,4.51123 -4.72315,4.51123 0,0 5.46631,3.66211 5.46631,3.66211 0,0 -4.72363,4.56445 -4.72363,4.56445 0,0 5.41406,3.66162 5.41406,3.66162 0,0 -4.6709,4.56495 -4.6709,4.56495 -5.41308,0.95507 -10.13672,3.4497 -14.27685,7.58935 -4.08643,4.08691 -6.63428,8.81055 -7.58936,14.11816 -0.0537,0.15918 -0.0537,0.31836 -0.0537,0.42481 0,0 -4.45801,4.56396 -4.45801,4.56396 0,0 -3.60937,-5.41357 -3.60937,-5.41357 0,0 -4.56397,4.6709 -4.56397,4.6709 0,0 -3.6626,-5.4668 -3.6626,-5.4668 0,0 -4.56396,4.72363 -4.56396,4.72363 0,0 -3.60938,-5.36035 -3.60938,-5.36035 0,0 0,-0.0537 0,-0.0537 0,0 -4.56445,4.72412 -4.56445,4.72412 0,0 -3.82129,-5.41406 -3.82129,-5.41406 0.10645,-1.0083 0.26514,-1.96338 0.42481,-2.91846 0,0 0,-0.10644 0,-0.10644 2.06982,-12.10108 7.64258,-22.66309 16.77148,-31.79151 3.02539,-3.0249 6.20947,-5.62597 9.50049,-7.9082 7.58984,-5.09521 15.9751,-8.17334 25.15674,-9.34131 z m 41.18603,9.34131 c 1.32715,0.95508 2.65381,1.91065 3.92774,2.91895 1.91064,1.53906 3.71484,3.18457 5.46679,4.98925 2.44141,2.44141 4.6709,4.93555 6.63428,7.53614 5.94434,8.17383 9.55322,17.24951 10.7207,27.3872 0,0 -3.71484,5.30713 -3.71484,5.30713 0,0 -4.56445,-4.72412 -4.56445,-4.72412 0,0 0,0.0537 0,0.0537 0,0 -3.66211,5.36035 -3.66211,5.36035 0,0 -4.51123,-4.72363 -4.51123,-4.72363 0,0 -3.6626,5.4668 -3.6626,5.4668 0,0 -4.56396,-4.6709 -4.56396,-4.6709 0,0 -3.60889,5.41357 -3.60889,5.41357 0,0 -4.56494,-4.72363 -4.56494,-4.72363 0,0 -0.0527,0.0532 -0.0527,0.0532 -0.95556,-5.51953 -3.50293,-10.29638 -7.64257,-14.43652 -4.08692,-4.13965 -8.86377,-6.68701 -14.33057,-7.58935 0,0 0,0 0,0 0,0 -4.72363,-4.56495 -4.72363,-4.56495 0,0 5.46679,-3.66162 5.46679,-3.66162 0,0 -4.72363,-4.56445 -4.72363,-4.56445 0,0 5.4668,-3.66211 5.4668,-3.66211 0,0 -4.72412,-4.51123 -4.72412,-4.51123 0,0 5.41406,-3.66211 5.41406,-3.66211 0,0 0,0 0,0 0,0 -4.72363,-4.56494 -4.72363,-4.56494 0,0 5.41357,-3.76807 5.41357,-3.76807 6.95264,0.84912 13.37451,2.81299 19.42529,5.8916 1.32715,0.68995 2.65381,1.43311 3.98047,2.22901 0.58399,0.4248 1.22119,0.79638 1.85742,1.2207 z m -38.53222,-75.89648 c 0,0 4.61767,4.51123 4.61767,4.51123 0,0 -5.41357,3.66211 -5.41357,3.66211 0,0 4.72363,4.56445 4.72363,4.56445 0,0 -5.46631,3.60889 -5.46631,3.60889 0,0 4.72315,4.56445 4.72315,4.56445 0,0 -5.41309,3.66211 -5.41309,3.66211 0,0 4.72363,4.56445 4.72363,4.56445 0,0 0,0 0,0 0,0 -5.46679,3.76856 -5.46679,3.76856 -13.26856,-1.59229 -24.83887,-7.32422 -34.71094,-17.19629 0,0 -0.0527,-0.0527 -0.0527,-0.0527 -7.37745,-7.37744 -12.41993,-15.71093 -15.17969,-24.99853 -0.95557,-3.13135 -1.59229,-6.36914 -2.0166,-9.71289 0,0 3.66211,-5.30713 3.66211,-5.30713 0,0 0.0527,0.0527 0.0527,0.0527 0,0 0.2124,-0.26513 0.2124,-0.26513 0,0 4.51172,4.67089 4.51172,4.67089 0,0 3.44971,-5.14843 3.44971,-5.14843 0,0 0.0527,0.0532 0.0527,0.0532 0,0 0.2124,-0.31885 0.2124,-0.31885 0,0 4.51172,4.6709 4.51172,4.6709 0,0 3.44971,-5.14844 3.44971,-5.14844 0,0 0.0527,0.0527 0.0527,0.0527 0,0 0.15918,-0.26514 0.15918,-0.26514 0,0 4.51172,4.61719 4.51172,4.61719 0,0 3.44971,-5.09473 3.44971,-5.09473 0,0 0.0532,0.0532 0.0532,0.0532 0,0 0.21192,-0.31835 0.21192,-0.31835 0,0 4.40527,4.56396 4.40527,4.56396 0,0.10645 0.0532,0.26563 0.0532,0.4248 0,0 0,0.0532 0,0.10596 0.10596,0.58399 0.26514,1.16797 0.42432,1.75195 1.16748,4.56397 3.60937,8.65088 7.16504,12.26026 4.14014,4.08642 8.86377,6.63428 14.27734,7.58887 0,0 0.0527,0.0537 0.0527,0.0537 z M 740.9834,-743.75 c 0,0 4.08691,5.04199 4.08691,5.04199 0,0 0,49.89014 0,49.89014 0,0 -4.08691,5.04199 -4.08691,5.04199 0,0 -4.03369,-4.93555 -4.03369,-4.93555 -0.10596,0.0532 -0.21241,0.10596 -0.31836,0.1587 0,0 -3.87451,4.77685 -3.87451,4.77685 0,0 -4.08643,-5.04199 -4.08643,-5.04199 0,0 -0.10693,0 -0.10693,0 0,0 -4.03369,5.04199 -4.03369,5.04199 0,0 -3.82081,-4.67041 -3.82081,-4.67041 -0.15966,-0.10644 -0.31835,-0.21191 -0.47753,-0.26514 0,0 -3.98047,4.93555 -3.98047,4.93555 0,0 -4.08692,-5.04199 -4.08692,-5.04199 0,0 -0.0532,0 -0.0532,0 0,0 0,-49.89014 0,-49.89014 0,0 0.0532,0 0.0532,0 0,0 4.08692,-5.04199 4.08692,-5.04199 0,0 4.08642,5.04199 4.08642,5.04199 0,0 0.10645,0 0.10645,0 0,0 4.08594,-5.04199 4.08594,-5.04199 0,0 4.03369,5.04199 4.03369,5.04199 0,0 0.10693,0 0.10693,0 0,0 4.08643,-5.04199 4.08643,-5.04199 0,0 4.08691,5.04199 4.08691,5.04199 0,0 4.13965,-5.04199 4.13965,-5.04199 z m -346.09912,101.00098 c 0,0 0.053,-0.0532 0.053,-0.0532 0,0 -4.72364,-4.56445 -4.72364,-4.56445 0,0 5.41382,-3.76855 5.41382,-3.76855 13.26856,1.6455 24.83862,7.37793 34.65772,17.24951 9.1289,9.1289 14.75439,19.69092 16.77148,31.7915 0,0 0,0.10645 0,0.10645 0.15918,0.95508 0.31836,1.91064 0.42432,2.91894 0,0 -3.76807,5.41358 -3.76807,5.41358 0,0 -4.56445,-4.72364 -4.56445,-4.72364 0,0 -0.0532,0.0532 -0.0532,0.0532 0,0 -3.60888,5.41357 -3.60888,5.41357 0,0 -4.56445,-4.77685 -4.56445,-4.77685 0,0 -3.66211,5.46728 -3.66211,5.46728 0,0 -4.51123,-4.6709 -4.51123,-4.6709 0,0 -3.66236,5.41358 -3.66236,5.41358 0,0 -4.40503,-4.56446 -4.40503,-4.56446 -0.0532,-0.10595 -0.0532,-0.26513 -0.0532,-0.4248 -0.0532,0 -0.0532,-0.0527 -0.0532,-0.10547 0,0 0.0532,0.10547 0.0532,0.10547 -1.0083,-5.30713 -3.55566,-10.03076 -7.64258,-14.11768 -4.08691,-4.13965 -8.81055,-6.63476 -14.22388,-7.58984 0,0 -4.72387,-4.56445 -4.72387,-4.56445 0,0 5.41357,-3.66163 5.41357,-3.66163 0,0 -4.67041,-4.56494 -4.67041,-4.56494 0,0 5.41333,-3.66162 5.41333,-3.66162 0,0 -4.67041,-4.51123 -4.67041,-4.51123 0,0 5.3606,-3.60937 5.3606,-3.60937 z m -67.45777,56.57763 c 0,0 0,0 0,0 0,0 4.08667,-5.04248 4.08667,-5.04248 0,0 4.1399,5.04248 4.1399,5.04248 0,0 0.0532,0 0.0532,0 0,0 4.08667,-5.04248 4.08667,-5.04248 0,0 4.08691,5.04248 4.08691,5.04248 0,0 0.053,0 0.053,0 0,0 4.08667,-5.04248 4.08667,-5.04248 0,0 4.13989,5.04248 4.13989,5.04248 0,0 4.08643,-5.04248 4.08643,-5.04248 0,0 4.08691,5.04248 4.08691,5.04248 0,0 0,49.67725 0,49.67725 0,0 -4.08691,5.04199 -4.08691,5.04199 0,0 -4.03369,-4.93555 -4.03369,-4.93555 -0.10596,0.0532 -0.21216,0.10596 -0.26538,0.15918 0,0 -3.92725,4.77637 -3.92725,4.77637 0,0 -4.08667,-5.04199 -4.08667,-5.04199 0,0 -0.053,0 -0.053,0 0,0 -4.08691,5.04199 -4.08691,5.04199 0,0 -3.76856,-4.66992 -3.76856,-4.66992 -0.0527,0 -0.10595,-0.0532 -0.10595,-0.0532 -0.15918,-0.0532 -0.26538,-0.15918 -0.37158,-0.21241 0,0 -4.0337,4.93555 -4.0337,4.93555 0,0 -4.08667,-5.04199 -4.08667,-5.04199 0,0 0,0 0,0 0,0 0,-49.67725 0,-49.67725 z m 14.01172,-43.9458 c 1.1145,-1.27344 2.28198,-2.54785 3.55591,-3.76855 4.72388,-4.77637 9.81885,-8.54492 15.33862,-11.35791 5.99732,-3.07813 12.47266,-5.04199 19.37207,-5.8916 0,0 5.4668,3.76855 5.4668,3.76855 0,0 -4.72363,4.56445 -4.72363,4.56445 0,0 5.41382,3.6626 5.41382,3.6626 0,0 -4.72388,4.51123 -4.72388,4.51123 0,0 5.4668,3.66162 5.4668,3.66162 0,0 -4.72364,4.56494 -4.72364,4.56494 0,0 5.41358,3.66163 5.41358,3.66163 0,0 -4.67041,4.56445 -4.67041,4.56445 0,0 0,0 0,0 -5.46704,0.90283 -10.24365,3.45019 -14.33032,7.58984 -4.19288,4.13965 -6.6875,8.91651 -7.64283,14.43653 0,0 -0.053,-0.0532 -0.053,-0.0532 0,0 -4.56445,4.72364 -4.56445,4.72364 0,0 -3.60889,-5.41358 -3.60889,-5.41358 0,0 -4.56445,4.6709 -4.56445,4.6709 0,0 -3.66211,-5.46728 -3.66211,-5.46728 0,0 -4.51147,4.77685 -4.51147,4.77685 0,0 -3.66236,-5.4668 -3.66236,-5.4668 0,0 -4.5642,4.72364 -4.5642,4.72364 0,0 -3.71509,-5.30713 -3.71509,-5.30713 1.37964,-11.72949 5.94409,-22.0791 13.69311,-31.15479 z m 18.89453,-25.84765 c 0,0 0,8.59814 0,8.59814 -5.89135,3.07813 -11.41088,7.16504 -16.5061,12.26025 0,0 0,0 -0.0532,0.0532 -1.27393,1.27392 -2.44141,2.54736 -3.60889,3.87451 -5.94458,6.84619 -10.19067,14.3833 -12.73804,22.66308 0,0 0,-47.44921 0,-47.44921 0,0 0,0 0,0 0,0 4.08667,-5.09473 4.08667,-5.09473 0,0 4.1399,5.09473 4.1399,5.09473 0,0 0.0532,0 0.0532,0 0,0 4.08667,-5.09473 4.08667,-5.09473 0,0 4.08691,5.09473 4.08691,5.09473 0,0 0.053,0 0.053,0 0,0 4.08667,-5.09473 4.08667,-5.09473 0,0 4.13989,5.09473 4.13989,5.09473 0,0 4.08643,-5.09473 4.08643,-5.09473 0,0 4.08691,5.09473 4.08691,5.09473 z m 95.69312,-77.06397 c 0,0 -0.0527,-0.10596 -0.0527,-0.10596 -0.15918,-1.00878 -0.26562,-1.96386 -0.37158,-2.91943 0,0 3.76807,-5.41357 3.76807,-5.41357 0,0 4.56445,4.72363 4.56445,4.72363 0,0 0.0532,-0.0527 0.0532,-0.0527 0,0 3.60938,-5.41406 3.60938,-5.41406 0,0 4.56396,4.72364 4.56396,4.72364 0,0 3.6626,-5.41358 3.6626,-5.41358 0,0 4.51123,4.67041 4.51123,4.67041 0,0 3.66211,-5.41308 3.66211,-5.41308 0,0 4.40479,4.51123 4.40479,4.51123 0,0.15918 0,0.31836 0.0532,0.42431 0,0.0532 0,0.10645 0,0.15918 0,0 0,-0.15918 0,-0.15918 1.0083,5.36035 3.55615,10.08399 7.64258,14.17139 4.08691,4.08642 8.81054,6.63428 14.22412,7.58887 0,0 0,0 0,0 0,0 4.72363,4.56494 4.72363,4.56494 0,0 -5.46631,3.66211 -5.46631,3.66211 0,0 4.72315,4.51123 4.72315,4.51123 0,0 -5.4668,3.66211 -5.4668,3.66211 0,0 4.72412,4.56445 4.72412,4.56445 0,0 -5.41406,3.60937 -5.41406,3.60937 0,0 0,0.0527 0,0.0527 0,0 4.72412,4.56445 4.72412,4.56445 0,0 -5.4668,3.71533 -5.4668,3.71533 -13.21582,-1.59228 -24.78564,-7.37744 -34.60449,-17.1958 -9.18213,-9.12939 -14.75488,-19.74414 -16.77197,-31.79199 z m -61.2478,-73.77392 c 2.33545,2.28222 3.50293,5.0957 3.60888,8.33252 0,0 0,41.23925 0,41.23925 0,3.4502 -1.16748,6.31592 -3.60888,8.75782 -2.44141,2.38818 -5.36036,3.60888 -8.70411,3.60888 -3.4497,0 -6.31591,-1.2207 -8.75732,-3.60888 -2.38843,-2.4419 -3.60913,-5.30762 -3.60913,-8.75782 0,0 0,-41.29199 0,-41.29199 0.1062,-3.2373 1.3269,-5.99756 3.60913,-8.27978 2.44141,-2.44141 5.30762,-3.60889 8.75732,-3.60889 3.34375,0 6.2627,1.16748 8.70411,3.60889 z m -50.2085,22.66308 c 0.74292,-0.74316 1.48633,-1.4331 2.28223,-2.12305 6.10376,-5.57275 12.89721,-9.60644 20.27441,-12.10107 0,0 0,27.43945 0,27.43945 -1.75146,1.22071 -3.44971,2.65381 -5.09521,4.2461 -4.2461,4.24609 -7.16504,9.07568 -8.65088,14.43652 -0.84937,3.0249 -1.27393,6.20996 -1.27393,9.60596 0,9.34131 3.29053,17.35547 9.92481,23.98974 6.63452,6.63428 14.64868,9.9253 24.04296,9.9253 9.34131,0 17.35523,-3.29102 23.98951,-9.9253 6.63452,-6.63427 9.92505,-14.64843 9.92505,-23.98974 0,-3.396 -0.42457,-6.58106 -1.27369,-9.60596 -1.48632,-5.36084 -4.40551,-10.19043 -8.65136,-14.43652 -1.59229,-1.59229 -3.29053,-3.02539 -5.09497,-4.2461 0,0 0,-27.43945 0,-27.43945 8.33252,2.81299 15.81616,7.53662 22.55688,14.22412 1.8042,1.80469 3.44971,3.66211 4.98877,5.62598 8.12061,10.24316 12.1543,22.18506 12.1543,35.87793 0,16.18799 -5.73242,29.9873 -17.14307,41.45166 -11.46435,11.41064 -25.26367,17.14306 -41.45142,17.14306 -16.24096,0 -30.04028,-5.73242 -41.50439,-17.14306 -11.41113,-11.46436 -17.14307,-25.26367 -17.14307,-41.45166 0,-16.24072 5.73194,-30.03955 17.14307,-41.50391 z m 385.00269,-2.4414 c 4.72363,-4.72364 9.81884,-8.49219 15.33886,-11.30469 5.99707,-3.07862 12.47217,-5.04248 19.4253,-5.8916 0,0 5.41308,3.76855 5.41308,3.76855 0,0 -4.72363,4.56445 -4.72363,4.56445 0,0 0,0 0,0 0,0 5.41357,3.66211 5.41357,3.66211 0,0 -4.72363,4.51123 -4.72363,4.51123 0,0 5.4668,3.66211 5.4668,3.66211 0,0 -4.72364,4.56446 -4.72364,4.56446 0,0 5.4668,3.66211 5.4668,3.66211 0,0 -4.72363,4.51123 -4.72363,4.51123 0,0 0,0 0,0 -5.4668,0.95556 -10.24317,3.50293 -14.33008,7.58984 -4.13965,4.19287 -6.6875,8.96973 -7.64307,14.43652 0,0 -0.0527,0 -0.0527,0 0,0 -4.56445,4.72364 -4.56445,4.72364 0,0 -3.60889,-5.41407 -3.60889,-5.41407 0,0 -4.56445,4.6709 -4.56445,4.6709 0,0 -3.66211,-5.46679 -3.66211,-5.46679 0,0 -4.51172,4.72314 -4.51172,4.72314 0,0 -3.66211,-5.41309 -3.66211,-5.41309 0,0 0,0 0,0 0,0 -4.56445,4.72315 -4.56445,4.72315 0,0 -3.71534,-5.36035 -3.71534,-5.36035 1.53955,-13.32178 7.32471,-24.99805 17.24952,-34.92285 z m -77.48877,-8.81055 c 0,0 0.0527,-0.0527 0.0527,-0.0527 0,0 -4.72363,-4.56445 -4.72363,-4.56445 0,0 5.41406,-3.76855 5.41406,-3.76855 9.34131,1.16796 17.83301,4.35205 25.47559,9.60644 3.23779,2.17627 6.26269,4.72363 9.18213,7.64307 9.1289,9.1289 14.70166,19.69043 16.77148,31.7915 0,0 0,0.10596 0,0.10596 0.15918,0.95557 0.31836,1.91064 0.42432,2.91943 0,0 -3.76807,5.41309 -3.76807,5.41309 0,0 -4.61768,-4.72315 -4.61768,-4.72315 0,0 -3.60888,5.46631 -3.60888,5.46631 0,0 -4.56397,-4.77636 -4.56397,-4.77636 0,0 -3.6626,5.46679 -3.6626,5.46679 0,0 -4.56445,-4.6709 -4.56445,-4.6709 0,0 -3.60889,5.41407 -3.60889,5.41407 0,0 -4.40527,-4.56495 -4.40527,-4.56495 -0.0532,-0.10595 -0.0532,-0.26513 -0.10644,-0.37158 -0.95508,-5.36035 -3.50245,-10.08398 -7.58936,-14.1709 -4.14014,-4.13964 -8.86328,-6.63427 -14.22412,-7.58935 0,0 -4.72315,-4.56445 -4.72315,-4.56445 0,0 5.41309,-3.66211 5.41309,-3.66211 0,0 -4.67041,-4.51172 -4.67041,-4.51172 0,0 5.41357,-3.66162 5.41357,-3.66162 0,0 -4.72363,-4.56446 -4.72363,-4.56446 0,0 5.41358,-3.60937 5.41358,-3.60937 z m -63.31787,28.60742 c 2.97216,-7.21826 7.43017,-13.7998 13.42773,-19.74365 2.86621,-2.91944 5.94434,-5.4668 9.12891,-7.64307 7.6958,-5.25439 16.24072,-8.43848 25.58203,-9.60644 0,0 5.46679,3.76855 5.46679,3.76855 0,0 -4.77685,4.56445 -4.77685,4.56445 0,0 0.0532,0.0527 0.0532,0.0527 0,0 5.41309,3.60937 5.41309,3.60937 0,0 -4.72315,4.56446 -4.72315,4.56446 0,0 5.46631,3.66162 5.46631,3.66162 0,0 -4.72363,4.51172 -4.72363,4.51172 0,0 5.41357,3.66211 5.41357,3.66211 0,0 -4.67041,4.56445 -4.67041,4.56445 -5.46679,0.90234 -10.24316,3.44971 -14.33008,7.58935 -4.19287,4.14014 -6.74072,8.917 -7.64306,14.43653 0,0 -0.0527,-0.0527 -0.0527,-0.0527 0,0 -4.56445,4.72364 -4.56445,4.72364 0,0 -3.60937,-5.41407 -3.60937,-5.41407 0,0 -4.56397,4.6709 -4.56397,4.6709 0,0 -3.6626,-5.46679 -3.6626,-5.46679 0,0 -4.56396,4.77636 -4.56396,4.77636 0,0 -3.66211,-5.46631 -3.66211,-5.46631 0,0 -4.56445,4.72315 -4.56445,4.72315 0,0 -3.66211,-5.30713 -3.66211,-5.30713 0.58349,-5.36035 1.91015,-10.40283 3.82129,-15.1792 z m -13.10938,-31.84473 c 0,0 0,0 0,0 0,0 0,49.67774 0,49.67774 0,0 0,0 0,0 0,0 -4.14014,5.04199 -4.14014,5.04199 0,0 -4.08642,-5.04199 -4.08642,-5.04199 0,0 -0.10645,0 -0.10645,0 0,0 -4.0332,5.04199 -4.0332,5.04199 0,0 -4.08691,-5.04199 -4.08691,-5.04199 0,0 -0.10596,0 -0.10596,0 0,0 -4.03418,5.04199 -4.03418,5.04199 0,0 -4.19238,-5.04199 -4.19238,-5.04199 0,0 -4.0337,5.04199 -4.0337,5.04199 0,0 -4.14013,-5.04199 -4.14013,-5.04199 0,0 0,-49.67774 0,-49.67774 0,0 4.14013,-5.09521 4.14013,-5.09521 0,0 3.98047,4.98877 3.98047,4.98877 0.10596,-0.0527 0.21192,-0.10596 0.31836,-0.15918 0,0 3.92725,-4.82959 3.92725,-4.82959 0,0 4.03418,5.09521 4.03418,5.09521 0,0 0.10596,0 0.10596,0 0,0 4.08691,-5.09521 4.08691,-5.09521 0,0 3.76807,4.72363 3.76807,4.72363 0,0 0.0532,0 0.10595,0.0532 0.10645,0.0527 0.2124,0.10596 0.37158,0.21192 0,0 3.98047,-4.98877 3.98047,-4.98877 0,0 4.14014,5.09521 4.14014,5.09521 z m -87.62598,-0.0532 c 0,0 0.0527,0 0.0527,0 0,0 -0.0527,8.27979 -0.0527,8.27979 0,0 0,0 0,0 0,0.15918 0,0.37158 0,0.58398 0,0 0,40.86719 0,40.86719 0,0 -4.08691,5.04199 -4.08691,5.04199 0,0 -4.08691,-5.09521 -4.08691,-5.09521 0,0 -0.0527,0 -0.0527,0 0,0 -4.08691,5.09521 -4.08691,5.09521 0,0 -4.08692,-5.09521 -4.08692,-5.09521 0,0 -0.10595,0 -0.10595,0 0,0 -4.08692,5.09521 -4.08692,5.09521 0,0 -4.08642,-5.09521 -4.08642,-5.09521 0,0 -4.08692,5.09521 -4.08692,5.09521 0,0 -4.13965,-5.09521 -4.13965,-5.09521 0,0 0,-49.67774 0,-49.67774 0,0 4.13965,-5.09521 4.13965,-5.09521 0,0 3.98047,4.98925 3.98047,4.98925 0,0 -0.0527,0.0527 -0.0527,0.0527 0.0527,0 0.0527,0 0.10595,-0.0527 0,0 0,0 0,0 0.10596,-0.0532 0.15918,-0.10644 0.21241,-0.10644 0,0 3.92724,-4.88281 3.92724,-4.88281 0,0 2.33545,2.86621 2.33545,2.86621 0,0 -0.10596,0.0527 -0.10596,0.0527 0,0 0.0527,0 0.10596,-0.0527 0,0 1.75147,2.229 1.75147,2.229 0,0 0.10595,0 0.10595,0 0,0 4.08692,-5.09521 4.08692,-5.09521 0,0 3.71533,4.67089 3.71533,4.67089 0,0 -0.0532,0.0527 -0.0532,0.0527 0.0532,0 0.10595,0.0532 0.15966,0.10644 0,0 0,0 0.0527,0 0.10596,0.0527 0.2124,0.10596 0.26514,0.21192 0,0 0.0532,0 0.0532,0 0,0 4.03369,-5.04199 4.03369,-5.04199 0,0 4.08691,5.09521 4.08691,5.09521 z m 455.5918,285.1167 c 0,0 0.0532,0 0.0532,0 0,0 4.08643,5.09473 4.08643,5.09473 0,0 4.14014,-5.09473 4.14014,-5.09473 0,0 0.0527,0 0.0527,0 0,0 4.08643,5.09473 4.08643,5.09473 0,0 4.14013,-5.09473 4.14013,-5.09473 0,0 0,53.60498 0,53.60498 0,0 -0.0527,0 -0.0527,0 0,0 -4.0874,5.0957 -4.0874,5.0957 0,0 -4.08643,-5.0957 -4.08643,-5.0957 0,0 -0.0527,0 -0.0527,0 0,0 -4.14014,5.0957 -4.14014,5.0957 0,0 -4.08643,-5.0957 -4.08643,-5.0957 0,0 -0.0532,0 -0.0532,0 0,0 -4.08691,5.0957 -4.08691,5.0957 0,0 -4.08692,-5.0957 -4.08692,-5.0957 0,0 -4.13965,5.0957 -4.13965,5.0957 0,0 -4.08642,-5.0957 -4.08642,-5.0957 0,0 0,-53.60498 0,-53.60498 0,0 4.08642,5.09473 4.08642,5.09473 0,0 4.13965,-5.09473 4.13965,-5.09473 0,0 4.08692,5.09473 4.08692,5.09473 0,0 4.08691,-5.09473 4.08691,-5.09473 z m 6.10352,-33.54346 c 0.21191,-0.37109 0.47754,-0.68994 0.68994,-0.95556 4.40527,-5.83789 7.64258,-12.15332 9.76562,-18.89405 0,0 0,46.22803 0,46.22803 0,0 -4.14013,5.09473 -4.14013,5.09473 0,0 -4.08643,-5.09473 -4.08643,-5.09473 0,0 -0.0527,0 -0.0527,0 0,0 -4.14014,5.09473 -4.14014,5.09473 0,0 -4.08643,-5.09473 -4.08643,-5.09473 0,0 -0.0532,0 -0.0532,0 0,0 -4.08691,5.09473 -4.08691,5.09473 0,0 -4.08692,-5.09473 -4.08692,-5.09473 0,0 -4.13965,5.09473 -4.13965,5.09473 0,0 -4.08642,-5.09473 -4.08642,-5.09473 0,0 0,-7.43066 0,-7.43066 0.26513,-0.10645 0.47754,-0.26563 0.74316,-0.37158 1.53906,-0.84913 3.13086,-1.8042 4.6167,-2.75977 0,0 5.36084,-3.87451 5.36084,-3.87451 0.10645,-0.15918 0.26563,-0.26563 0.42481,-0.37158 0,0 4.0332,-3.55616 4.0332,-3.55616 0.42529,-0.42431 0.84961,-0.84912 1.32715,-1.27343 0,0 0,-0.0532 0,-0.0532 0,0 0,0 0.0532,0 0,0 0,-0.0532 0,-0.0532 0,0 0,0 0.0532,0 1.22022,-1.27393 2.38819,-2.54736 3.55567,-3.82129 0,0 0,-0.0527 0,-0.0527 0,0 0,0 0.0527,0 0,0 2.28272,-2.76026 2.28272,-2.76026 z m -22.45069,-38.58496 c 0,0 0,0 0,0 0,0 4.56446,-4.6709 4.56446,-4.6709 0,0 3.6621,5.41358 3.6621,5.41358 0,0 4.56446,-4.72315 4.56446,-4.72315 0,0 3.66211,5.4668 3.66211,5.4668 0,0 4.51123,-4.72412 4.51123,-4.72412 0,0 3.60937,5.41357 3.60937,5.41357 0,0 0.0532,0 0.0532,0 0,0 4.56396,-4.72314 4.56396,-4.72314 0,0 3.71533,5.36035 3.71533,5.36035 -1.59228,13.32178 -7.32422,24.99805 -17.24951,34.92285 -4.72314,4.72363 -9.87158,8.54492 -15.39111,11.35791 -5.99756,3.02539 -12.41992,4.98926 -19.37256,5.83838 0,0 -5.41358,-3.71533 -5.41358,-3.71533 0,0 4.72364,-4.56445 4.72364,-4.56445 0,0 -0.0532,-0.0532 -0.0532,-0.0532 0,0 -5.41308,-3.6084 -5.41308,-3.6084 0,0 4.77637,-4.56494 4.77637,-4.56494 0,0 -5.46631,-3.66162 -5.46631,-3.66162 0,0 4.67041,-4.51172 4.67041,-4.51172 0,0 -5.41358,-3.66211 -5.41358,-3.66211 0,0 4.72364,-4.56445 4.72364,-4.56445 5.41357,-0.95508 10.18994,-3.50293 14.33007,-7.58935 4.13965,-4.19336 6.6875,-8.96973 7.64258,-14.43653 z m 24.94531,-60.13379 c 0,0 4.03321,-4.93554 4.03321,-4.93554 0,0 4.08691,5.09521 4.08691,5.09521 0,0 0.0537,0 0.0537,0 0,0 0,49.83692 0,49.83692 0,0 -0.0537,0 -0.0537,0 0,0 -4.08691,5.04199 -4.08691,5.04199 0,0 -4.13965,-5.04199 -4.13965,-5.04199 0,0 -0.0532,0 -0.0532,0 0,0 -4.08643,5.04199 -4.08643,5.04199 0,0 -4.08691,-5.04199 -4.08691,-5.04199 0,0 -0.0527,0 -0.0527,0 0,0 -4.0874,5.04199 -4.0874,5.04199 0,0 -4.13916,-5.04199 -4.13916,-5.04199 0,0 -4.08691,5.04199 -4.08691,5.04199 0,0 -4.08692,-5.04199 -4.08692,-5.04199 0,0 0,-49.83692 0,-49.83692 0,0 4.08692,-5.09521 4.08692,-5.09521 0,0 4.03369,4.98925 4.03369,4.98925 0.10644,-0.10693 0.21191,-0.15918 0.31836,-0.2124 0,0 3.87402,-4.77685 3.87402,-4.77685 0,0 4.0874,5.09521 4.0874,5.09521 0,0 0.0527,0 0.0527,0 0,0 4.08691,-5.09521 4.08691,-5.09521 0,0 3.76807,4.67041 3.76807,4.67041 0.15967,0.10644 0.31836,0.21191 0.47802,0.26513 z m -111.4038,65.91895 c -0.15918,-0.95557 -0.26514,-1.91065 -0.3711,-2.86621 0,0 3.76807,-5.46631 3.76807,-5.46631 0,0 4.56445,4.72314 4.56445,4.72314 0,0 0.0532,0 0.0532,0 0,0 3.60889,-5.41357 3.60889,-5.41357 0,0 4.51074,4.72412 4.51074,4.72412 0,0 3.6626,-5.4668 3.6626,-5.4668 0,0 4.56445,4.72315 4.56445,4.72315 0,0 3.66211,-5.41358 3.66211,-5.41358 0,0 4.40528,4.51172 4.40528,4.51172 0,0.15918 0.0532,0.31836 0.0532,0.42432 1.0083,5.36035 3.55566,10.08447 7.64258,14.17139 4.08691,4.08642 8.81054,6.63427 14.22412,7.58935 0,0 4.72363,4.56445 4.72363,4.56445 0,0 -5.46679,3.66211 -5.46679,3.66211 0,0 4.72363,4.51172 4.72363,4.51172 0,0 -5.4668,3.66162 -5.4668,3.66162 0,0 4.72363,4.56494 4.72363,4.56494 0,0 -5.41308,3.6084 -5.41308,3.6084 0,0 0,0.0532 0,0.0532 0,0 4.72363,4.56445 4.72363,4.56445 0,0 -5.46728,3.71533 -5.46728,3.71533 -13.21534,-1.64551 -24.78565,-7.32471 -34.6045,-17.19629 -9.18213,-9.18164 -14.75488,-19.74365 -16.77148,-31.7915 0,0 -0.0532,-0.15918 -0.0532,-0.15918 z m -16.77149,-3.29053 c 0,0 4.56446,-4.72363 4.56446,-4.72363 0,0 3.71484,5.30713 3.71484,5.30713 -1.3794,11.51758 -5.83789,21.76074 -13.37402,30.73047 -1.2212,1.43261 -2.49463,2.81298 -3.875,4.19287 -9.87159,9.87158 -21.4419,15.604 -34.76368,17.19629 0,0 -5.41308,-3.71582 -5.41308,-3.71582 0,0 4.72314,-4.56446 4.72314,-4.56446 0,0 0,-0.0527 0,-0.0527 0,0 -5.41357,-3.60889 -5.41357,-3.60889 0,0 4.72363,-4.56445 4.72363,-4.56445 0,0 -5.4668,-3.66211 -5.4668,-3.66211 0,0 4.67041,-4.51123 4.67041,-4.51123 0,0 -5.41357,-3.60938 -5.41357,-3.60938 0,0 4.72363,-4.61767 4.72363,-4.61767 0,0 0,0 0,0 5.4668,-0.95508 10.24365,-3.50244 14.33057,-7.58936 3.60889,-3.60888 5.99707,-7.69629 7.16455,-12.31347 0.15918,-0.68995 0.31885,-1.37989 0.47803,-2.12305 0,0 0.0527,0 0.0527,0 0,0 4.51172,-4.67041 4.51172,-4.67041 0,0 3.66211,5.41357 3.66211,5.41357 0,0 4.56445,-4.6709 4.56445,-4.6709 0,0 3.66211,5.41407 3.66211,5.41407 0,0 4.51123,-4.72364 4.51123,-4.72364 0,0 3.66211,5.4668 3.66211,5.4668 z m -20.32763,-58.70068 c 0.6372,0.37158 1.27392,0.79638 1.91113,1.22119 1.32666,0.90185 2.6001,1.85693 3.92724,2.91894 1.85743,1.53858 3.66211,3.18409 5.46631,4.93555 2.4419,2.44141 4.61768,4.98926 6.63477,7.58984 5.94433,8.12012 9.50049,17.24952 10.72119,27.3335 0,0 -3.71533,5.36035 -3.71533,5.36035 0,0 -4.56494,-4.72363 -4.56494,-4.72363 0,0 -0.0527,0 -0.0527,0 0,0 -3.60888,5.41357 -3.60888,5.41357 0,0 -4.56446,-4.72314 -4.56446,-4.72314 0,0 -3.66211,5.46631 -3.66211,5.46631 0,0 -4.51172,-4.72363 -4.51172,-4.72363 0,0 -3.66162,5.41308 -3.66162,5.41308 0,0 -4.56494,-4.66992 -4.56494,-4.66992 0,0 -0.0527,0 -0.0527,0 -0.90186,-5.46729 -3.44971,-10.29688 -7.58936,-14.43652 -4.14014,-4.08692 -8.91699,-6.63428 -14.33056,-7.58985 0,0 -0.0532,0 -0.0532,0 0,0 -4.67041,-4.56396 -4.67041,-4.56396 0,0 5.41358,-3.66211 5.41358,-3.66211 0,0 -4.67041,-4.51172 -4.67041,-4.51172 0,0 5.41357,-3.66211 5.41357,-3.66211 0,0 -4.72363,-4.56445 -4.72363,-4.56445 0,0 5.41357,-3.60889 5.41357,-3.60889 0,0 0.0532,-0.0532 0.0532,-0.0532 0,0 -4.72363,-4.56446 -4.72363,-4.56446 0,0 5.41358,-3.71484 5.41358,-3.71484 6.89941,0.7959 13.37451,2.75977 19.37207,5.83789 1.37988,0.68994 2.70654,1.43311 3.98047,2.28223 z m 64.96337,-8.91651 c 0,0 4.08692,5.04248 4.08692,5.04248 0,0 0,0 0,0 0,0 -0.0532,49.94288 -0.0532,49.94288 0,0 -4.0337,5.04199 -4.0337,5.04199 0,0 -4.13964,-5.09473 -4.13964,-5.09473 0,0 -0.0532,0 -0.0532,0 0,0 -4.08642,5.09473 -4.08642,5.09473 0,0 -4.08692,-5.09473 -4.08692,-5.09473 0,0 -0.0532,0 -0.0532,0 0,0 -4.08691,5.09473 -4.08691,5.09473 0,0 -4.13965,-5.09473 -4.13965,-5.09473 0,0 -4.08692,5.09473 -4.08692,5.09473 0,0 -4.08642,-5.09473 -4.08642,-5.09473 0,0 0,-49.89014 0,-49.89014 0,0 4.08642,-5.04248 4.08642,-5.04248 0,0 4.0337,4.93555 4.0337,4.93555 0,0 -0.10596,0.10693 -0.10596,0.10693 0.0527,-0.0537 0.0527,-0.0537 0.10596,-0.0537 0,0 0.0532,-0.0532 0.0532,-0.0532 0.0532,0 0.10644,-0.0523 0.15918,-0.10547 0,0 0.0532,0 0.0532,0 0,0 3.92725,-4.83008 3.92725,-4.83008 0,0 2.28271,2.81299 2.28271,2.81299 0,0 -0.10644,0.0532 -0.10644,0.0532 0.0532,0 0.10644,0 0.15966,0 0,0 1.75098,2.17627 1.75098,2.17627 0,0 0.0532,0 0.0532,0 0,0 4.08692,-5.04248 4.08692,-5.04248 0,0 3.71484,4.61768 3.71484,4.61768 0,0 -0.0527,0.10596 -0.0527,0.10596 0.10595,0 0.15869,0.0532 0.21191,0.10644 0.10645,0.0532 0.2124,0.10547 0.31836,0.15869 0,0 0,0 0,0 0,0 4.08691,-4.98877 4.08691,-4.98877 z m -60.71728,-22.76904 c 0,0 4.08691,-5.09473 4.08691,-5.09473 0,0 4.08692,5.09473 4.08692,5.09473 0,0 0.0527,0 0.0527,0 0,0 4.08692,-5.09473 4.08692,-5.09473 0,0 4.13964,5.09473 4.13964,5.09473 0,0 0.0532,0 0.0532,0 0,0 4.08642,-5.09473 4.08642,-5.09473 0,0 4.14014,5.09473 4.14014,5.09473 0,0 0,66.13135 0,66.13135 -2.12305,-6.79395 -5.36084,-13.05664 -9.76563,-18.89502 -0.21289,-0.31836 -0.47802,-0.63672 -0.69043,-0.95557 0,0 -2.28222,-2.75927 -2.28222,-2.75927 -0.0527,0 -0.0527,0 -0.0527,0 0,-0.0532 0,-0.0532 0,-0.0532 -1.16797,-1.32666 -2.33545,-2.54785 -3.55615,-3.82129 -0.0532,0 -0.0532,0 -0.0532,-0.0532 -0.0527,0 -0.0527,0 -0.0527,-0.0532 0,0 0,0 0,0 -0.47802,-0.42432 -0.90234,-0.84912 -1.32666,-1.27344 0,0 -4.03369,-3.55664 -4.03369,-3.55664 -0.15967,-0.15869 -0.31885,-0.26465 -0.4248,-0.37109 0,0 -5.36035,-3.87403 -5.36035,-3.87403 -1.48633,-0.95556 -3.07862,-1.91113 -4.61768,-2.76074 -0.26562,-0.10547 -0.47803,-0.26514 -0.74316,-0.37109 0,0 0,-4.29932 0,-4.29932 0,0 0,-23.03418 0,-23.03418 0,0 4.08691,-5.09473 4.08691,-5.09473 0,0 4.13965,5.09473 4.13965,5.09473 z m 16.50635,-65.06934 c 0,0 4.08642,-5.09521 4.08642,-5.09521 0,0 4.08692,5.09521 4.08692,5.09521 0,0 0,49.89014 0,49.89014 0,0 -4.08692,5.04199 -4.08692,5.04199 0,0 -4.0332,-4.93554 -4.0332,-4.93554 0,0 0.0527,-0.0532 0.0527,-0.0532 0,0 -0.0527,0 -0.0527,0 0,0 -0.0532,0.0532 -0.0532,0.0532 -0.10645,0 -0.15967,0.0527 -0.21241,0.10547 0,0 0,0 0,0 0,0 -3.92773,4.83007 -3.92773,4.83007 0,0 -2.28223,-2.81298 -2.28223,-2.81298 0,0 0.0537,-0.0527 0.0537,-0.0527 0,0 -0.0537,0 -0.10644,0 0,0 -1.75147,-2.17627 -1.75147,-2.17627 0,0 -0.0532,0 -0.0532,0 0,0 -4.08642,5.04199 -4.08642,5.04199 0,0 -3.76856,-4.61718 -3.76856,-4.61718 0,0 0.10596,-0.0532 0.10596,-0.0532 -0.10596,-0.0532 -0.15918,-0.10644 -0.26514,-0.10644 -0.10644,-0.10596 -0.2124,-0.15869 -0.26562,-0.21192 0,0 -4.08643,4.98877 -4.08643,4.98877 0,0 -4.08691,-5.04199 -4.08691,-5.04199 0,0 -0.0532,0 -0.0532,0 0,0 0.10645,-49.94336 0.10645,-49.94336 0,0 4.03369,-5.04199 4.03369,-5.04199 0,0 4.08643,5.09521 4.08643,5.09521 0,0 0.10644,0 0.10644,0 0,0 4.08692,-5.09521 4.08692,-5.09521 0,0 4.08642,5.09521 4.08642,5.09521 0,0 0.0532,0 0.0532,0 0,0 4.08643,-5.09521 4.08643,-5.09521 0,0 4.14014,5.09521 4.14014,5.09521 z m 7.58935,-13.10937 c 0,0 -3.76855,5.46631 -3.76855,5.46631 0,0 -4.56397,-4.72315 -4.56397,-4.72315 0,0 -0.0527,0 -0.0527,0 0,0 -3.60938,5.41309 -3.60938,5.41309 0,0 -4.56445,-4.72314 -4.56445,-4.72314 0,0 -3.66211,5.46679 -3.66211,5.46679 0,0 -4.51172,-4.6709 -4.51172,-4.6709 0,0 -3.66211,5.41407 -3.66211,5.41407 0,0 -4.40478,-4.56495 -4.40478,-4.56495 -0.0532,-0.15869 -0.0532,-0.26513 -0.0532,-0.42431 -1.0083,-5.36035 -3.55615,-10.08447 -7.64257,-14.1709 -4.08692,-4.08691 -8.81055,-6.58154 -14.22412,-7.53662 0,0 0,-0.0532 0,-0.0532 0,0 -4.72364,-4.51123 -4.72364,-4.51123 0,0 5.41358,-3.66211 5.41358,-3.66211 0,0 -4.67041,-4.56446 -4.67041,-4.56446 0,0 5.46679,-3.66211 5.46679,-3.66211 0,0 -4.77685,-4.51123 -4.77685,-4.51123 0,0 5.41308,-3.66211 5.41308,-3.66211 0,0 0.0532,0 0.0532,0 0,0 -4.72315,-4.56445 -4.72315,-4.56445 0,0 5.41358,-3.76855 5.41358,-3.76855 13.26904,1.6455 24.83886,7.37744 34.65771,17.19629 9.12842,9.18212 14.7544,19.74365 16.77149,31.7915 0,0 0.0527,0.15918 0.0527,0.15918 0.10645,0.95557 0.26563,1.91064 0.37158,2.86621 z m 90.33301,47.02393 c -0.95557,1.2207 -1.96387,2.38818 -3.0249,3.55615 9.02246,0.47754 17.08984,1.2207 24.25488,2.38818 11.67627,1.85791 17.51465,4.08643 17.51465,6.74024 0,2.60107 -5.83838,4.8833 -17.51465,6.74072 -11.67627,1.85791 -25.79443,2.76025 -42.30029,2.76025 -16.55908,0 -30.67725,-0.90234 -42.35401,-2.76025 -11.67627,-1.85742 -17.51416,-4.13965 -17.51416,-6.74072 0,-2.65381 5.83789,-4.88233 17.51416,-6.74024 7.16553,-1.16748 15.23243,-1.91064 24.25489,-2.38818 -0.1587,-0.10596 -0.26514,-0.2124 -0.3711,-0.37158 -0.68994,-0.68995 -1.27392,-1.43311 -1.85742,-2.22901 -1.2207,-1.48584 -2.33496,-3.07861 -3.34375,-4.6709 -5.73242,-9.07568 -8.01465,-19.53125 -6.79394,-31.26074 1.85791,-18.15137 12.04785,-39.4873 30.46533,-64.00781 32.0039,42.61865 39.00927,75.63135 21.07031,98.98389 z m 8.06689,-223.01905 c -1.69775,-1.69848 -3.39648,-3.44995 -5.09472,-5.14843 -77.59473,-77.59501 -171.32471,-116.39241 -281.08252,-116.39241 -109.81104,0 -203.54102,38.7974 -281.13599,116.39241 -77.64819,77.64794 -116.44555,171.37792 -116.44555,281.13623 0,109.81103 38.79736,203.4873 116.44555,281.13574 1.69849,1.69824 3.39673,3.39648 5.1482,5.04199 76.58642,74.25098 168.56494,111.40332 275.98779,111.40332 109.75781,0 203.48779,-38.85059 281.08252,-116.44531 77.64844,-77.64844 116.44584,-171.32471 116.44584,-281.13574 0,-107.37012 -37.0992,-199.34815 -111.35112,-275.9878 z"
           inkscape:connector-curvature="0" />
        <path
           id="path3048"
           style="fill:#ffffff;fill-opacity:1;fill-rule:nonzero;stroke:none"
           d="m 893.14795,-711.37451 c 0.53076,0.53076 1.06152,1.0083 1.69873,1.48584 1.85742,1.27441 4.03369,1.91064 6.4751,1.85791 3.13086,0 5.73193,-1.0083 7.96093,-3.07862 0.5835,-0.63671 1.16749,-1.32666 1.69874,-1.96337 8.22656,-10.7212 4.98876,-25.84717 -9.65967,-45.37891 -8.43946,11.19873 -13.05664,21.01758 -13.95899,29.35059 -0.53076,5.36035 0.47803,10.13671 3.13135,14.32959 0.42432,0.69043 0.95557,1.4331 1.53955,2.12304 0.26514,0.37158 0.5835,0.68994 0.84863,1.0083 0.10694,0.0537 0.15967,0.15967 0.26563,0.26563 z"
           inkscape:connector-curvature="0" />
        <path
           id="path3050"
           style="fill:#ffffff;fill-opacity:1;fill-rule:nonzero;stroke:none"
           d="m 916.81934,-698.7959 c -4.45801,3.4502 -9.60645,5.20166 -15.49756,5.14844 -5.36084,0.0532 -10.08448,-1.38037 -14.22412,-4.14014 -0.42481,-0.31836 -0.84912,-0.63672 -1.27393,-1.0083 -5.99756,0.37158 -11.41064,0.90235 -16.24072,1.69824 -5.6792,0.84961 -9.5,1.91114 -11.46387,3.02539 -1.11475,0.63721 -1.69873,1.27393 -1.69873,2.01661 0,1.59277 2.86621,2.97216 8.59814,4.19336 1.37989,0.31835 2.86573,0.58349 4.56446,0.84912 8.75732,1.37988 19.31885,2.06982 31.73877,2.06982 12.36621,0 22.92822,-0.68994 31.68506,-2.06982 1.91113,-0.31836 3.66211,-0.63672 5.14843,-0.95508 5.36036,-1.2207 8.01465,-2.54785 8.01465,-4.0874 0,-0.58301 -0.37158,-1.11377 -1.11523,-1.64502 -1.8042,-1.27393 -5.78467,-2.44141 -12.04785,-3.39698 -4.82959,-0.79589 -10.24366,-1.32666 -16.1875,-1.69824 z"
           inkscape:connector-curvature="0" />
        <path
           id="path3052"
           style="fill:#231f20;fill-opacity:1;fill-rule:nonzero;stroke:none"
           d="m 935.55469,-922.71729 c -1.69824,-1.69824 -3.39698,-3.34375 -5.09571,-5.04199 74.25192,76.63965 111.35112,168.61768 111.35112,275.9878 0,109.81103 -38.7974,203.4873 -116.44584,281.13574 -77.59473,77.59472 -171.32471,116.44531 -281.08252,116.44531 -107.42285,0 -199.40137,-37.15234 -275.98779,-111.40332 1.64526,1.75146 3.34375,3.44971 5.04223,5.14844 C 450.93066,-282.85059 544.66064,-244 654.47168,-244 c 109.7583,0 203.48828,-38.85059 281.08301,-116.44531 C 1013.2026,-438.09375 1052,-531.77051 1052,-641.58154 c 0,-109.75782 -38.7974,-203.4878 -116.44531,-281.13575 z"
           inkscape:connector-curvature="0" />
        <path
           id="path3054"
           style="fill:#231f20;fill-opacity:1;fill-rule:nonzero;stroke:none"
           d="m 828.29053,-746.29785 c 0,0 3.76855,-5.46631 3.76855,-5.46631 -0.10595,-0.95557 -0.26513,-1.91064 -0.37158,-2.86621 0,0 -0.0527,-0.15918 -0.0527,-0.15918 -2.01709,-12.04785 -7.64307,-22.60938 -16.77149,-31.7915 -9.81885,-9.81885 -21.38867,-15.55079 -34.65771,-17.19629 0,0 -5.41358,3.76855 -5.41358,3.76855 0,0 4.72315,4.56445 4.72315,4.56445 0,0 -0.0532,0 -0.0532,0 0,0 -5.41308,3.66211 -5.41308,3.66211 0,0 4.77685,4.51123 4.77685,4.51123 0,0 -5.46679,3.66211 -5.46679,3.66211 0,0 4.67041,4.56446 4.67041,4.56446 0,0 -5.41358,3.66211 -5.41358,3.66211 0,0 4.72364,4.51123 4.72364,4.51123 0,0 0,0.0532 0,0.0532 5.41357,0.95508 10.1372,3.44971 14.22412,7.53662 4.08642,4.08643 6.63427,8.81055 7.64257,14.1709 0,0.15918 0,0.26562 0.0532,0.42431 0,0 4.40478,4.56495 4.40478,4.56495 0,0 3.66211,-5.41407 3.66211,-5.41407 0,0 4.51172,4.6709 4.51172,4.6709 0,0 3.66211,-5.46679 3.66211,-5.46679 0,0 4.56445,4.72314 4.56445,4.72314 0,0 3.60938,-5.41309 3.60938,-5.41309 0,0 0.0527,0 0.0527,0 0,0 4.56397,4.72315 4.56397,4.72315 z"
           inkscape:connector-curvature="0" />
        <path
           id="path3056"
           style="fill:#231f20;fill-opacity:1;fill-rule:nonzero;stroke:none"
           d="m 812.05029,-678.68018 c 0,0 -4.08691,5.09473 -4.08691,5.09473 0,0 -4.13965,-5.09473 -4.13965,-5.09473 0,0 -4.08691,5.09473 -4.08691,5.09473 0,0 0,23.03418 0,23.03418 0,0 0,4.29932 0,4.29932 0.26513,0.10595 0.47754,0.26562 0.74316,0.37109 1.53906,0.84961 3.13135,1.80518 4.61768,2.76074 0,0 5.36035,3.87403 5.36035,3.87403 0.10595,0.10644 0.26513,0.2124 0.4248,0.37109 0,0 4.03369,3.55664 4.03369,3.55664 0.42432,0.42432 0.84864,0.84912 1.32666,1.27344 0,0 0,0 0,0 0,0.0532 0,0.0532 0.0527,0.0532 0,0.0532 0,0.0532 0.0532,0.0532 1.2207,1.27344 2.38818,2.49463 3.55615,3.82129 0,0 0,0 0,0.0532 0,0 0,0 0.0527,0 0,0 2.28222,2.75927 2.28222,2.75927 0.21241,0.31885 0.47754,0.63721 0.69043,0.95557 4.40479,5.83838 7.64258,12.10107 9.76563,18.89502 0,0 0,-66.13135 0,-66.13135 0,0 -4.14014,-5.09473 -4.14014,-5.09473 0,0 -4.08642,5.09473 -4.08642,5.09473 0,0 -0.0532,0 -0.0532,0 0,0 -4.13964,-5.09473 -4.13964,-5.09473 0,0 -4.08692,5.09473 -4.08692,5.09473 0,0 -0.0527,0 -0.0527,0 0,0 -4.08692,-5.09473 -4.08692,-5.09473 z"
           inkscape:connector-curvature="0" />
        <path
           id="path3058"
           style="fill:#231f20;fill-opacity:1;fill-rule:nonzero;stroke:none"
           d="m 872.76758,-645.77393 c 0,0 -4.08692,-5.04248 -4.08692,-5.04248 0,0 -4.08691,4.98877 -4.08691,4.98877 0,0 0,0 0,0 -0.10596,-0.0532 -0.21191,-0.10547 -0.31836,-0.15869 -0.0532,-0.0532 -0.10596,-0.10644 -0.21191,-0.10644 0,0 0.0527,-0.10596 0.0527,-0.10596 0,0 -3.71484,-4.61768 -3.71484,-4.61768 0,0 -4.08692,5.04248 -4.08692,5.04248 0,0 -0.0532,0 -0.0532,0 0,0 -1.75098,-2.17627 -1.75098,-2.17627 -0.0532,0 -0.10644,0 -0.15966,0 0,0 0.10644,-0.0532 0.10644,-0.0532 0,0 -2.28271,-2.81299 -2.28271,-2.81299 0,0 -3.92725,4.83008 -3.92725,4.83008 0,0 -0.0532,0 -0.0532,0 -0.0527,0.0532 -0.10596,0.10547 -0.15918,0.10547 0,0 -0.0532,0.0532 -0.0532,0.0532 -0.0532,0 -0.0532,0 -0.10596,0.0537 0,0 0.10596,-0.10693 0.10596,-0.10693 0,0 -4.0337,-4.93555 -4.0337,-4.93555 0,0 -4.08642,5.04248 -4.08642,5.04248 0,0 0,49.89014 0,49.89014 0,0 4.08642,5.09473 4.08642,5.09473 0,0 4.08692,-5.09473 4.08692,-5.09473 0,0 4.13965,5.09473 4.13965,5.09473 0,0 4.08691,-5.09473 4.08691,-5.09473 0,0 0.0532,0 0.0532,0 0,0 4.08692,5.09473 4.08692,5.09473 0,0 4.08642,-5.09473 4.08642,-5.09473 0,0 0.0532,0 0.0532,0 0,0 4.13964,5.09473 4.13964,5.09473 0,0 4.0337,-5.04199 4.0337,-5.04199 0,0 0.0532,-49.94288 0.0532,-49.94288 0,0 0,0 0,0 z"
           inkscape:connector-curvature="0" />
        <path
           id="path3060"
           style="fill:#231f20;fill-opacity:1;fill-rule:nonzero;stroke:none"
           d="m 805.62842,-640.67871 c -0.63721,-0.42481 -1.27393,-0.84961 -1.91113,-1.22119 -1.27393,-0.84912 -2.60059,-1.59229 -3.98047,-2.28223 -5.99756,-3.07812 -12.47266,-5.04199 -19.37207,-5.83789 0,0 -5.41358,3.71484 -5.41358,3.71484 0,0 4.72363,4.56446 4.72363,4.56446 0,0 -0.0532,0.0532 -0.0532,0.0532 0,0 -5.41357,3.60889 -5.41357,3.60889 0,0 4.72363,4.56445 4.72363,4.56445 0,0 -5.41357,3.66211 -5.41357,3.66211 0,0 4.67041,4.51172 4.67041,4.51172 0,0 -5.41358,3.66211 -5.41358,3.66211 0,0 4.67041,4.56396 4.67041,4.56396 0,0 0.0532,0 0.0532,0 5.41357,0.95557 10.19042,3.50293 14.33056,7.58985 4.13965,4.13964 6.6875,8.96923 7.58936,14.43652 0,0 0.0527,0 0.0527,0 0,0 4.56494,4.66992 4.56494,4.66992 0,0 3.66162,-5.41308 3.66162,-5.41308 0,0 4.51172,4.72363 4.51172,4.72363 0,0 3.66211,-5.46631 3.66211,-5.46631 0,0 4.56446,4.72314 4.56446,4.72314 0,0 3.60888,-5.41357 3.60888,-5.41357 0,0 0.0527,0 0.0527,0 0,0 4.56494,4.72363 4.56494,4.72363 0,0 3.71533,-5.36035 3.71533,-5.36035 -1.2207,-10.08398 -4.77686,-19.21338 -10.72119,-27.3335 -2.01709,-2.60058 -4.19287,-5.14843 -6.63477,-7.58984 -1.8042,-1.75146 -3.60888,-3.39697 -5.46631,-4.93555 -1.32714,-1.06201 -2.60058,-2.01709 -3.92724,-2.91894 z"
           inkscape:connector-curvature="0" />
        <path
           id="path3062"
           style="fill:#231f20;fill-opacity:1;fill-rule:nonzero;stroke:none"
           d="m 956.25342,-650.76318 c 0,0 -4.03321,4.93554 -4.03321,4.93554 -0.15966,-0.0532 -0.31835,-0.15869 -0.47802,-0.26513 0,0 -3.76807,-4.67041 -3.76807,-4.67041 0,0 -4.08691,5.09521 -4.08691,5.09521 0,0 -0.0527,0 -0.0527,0 0,0 -4.0874,-5.09521 -4.0874,-5.09521 0,0 -3.87402,4.77685 -3.87402,4.77685 -0.10645,0.0532 -0.21192,0.10547 -0.31836,0.2124 0,0 -4.03369,-4.98925 -4.03369,-4.98925 0,0 -4.08692,5.09521 -4.08692,5.09521 0,0 0,49.83692 0,49.83692 0,0 4.08692,5.04199 4.08692,5.04199 0,0 4.08691,-5.04199 4.08691,-5.04199 0,0 4.13916,5.04199 4.13916,5.04199 0,0 4.0874,-5.04199 4.0874,-5.04199 0,0 0.0527,0 0.0527,0 0,0 4.08691,5.04199 4.08691,5.04199 0,0 4.08643,-5.04199 4.08643,-5.04199 0,0 0.0532,0 0.0532,0 0,0 4.13965,5.04199 4.13965,5.04199 0,0 4.08691,-5.04199 4.08691,-5.04199 0,0 0.0537,0 0.0537,0 0,0 0,-49.83692 0,-49.83692 0,0 -0.0537,0 -0.0537,0 0,0 -4.08691,-5.09521 -4.08691,-5.09521 z"
           inkscape:connector-curvature="0" />
        <path
           id="path3064"
           style="fill:#231f20;fill-opacity:1;fill-rule:nonzero;stroke:none"
           d="m 488.08301,-798.68213 c 0,0 -0.0527,0 -0.0527,0 0,0 -4.08691,-5.09521 -4.08691,-5.09521 0,0 -4.03369,5.04199 -4.03369,5.04199 0,0 -0.0532,0 -0.0532,0 -0.0527,-0.10596 -0.15918,-0.15918 -0.26514,-0.21192 -0.0527,0 -0.0527,0 -0.0527,0 -0.0537,-0.0532 -0.10644,-0.10644 -0.15966,-0.10644 0,0 0.0532,-0.0527 0.0532,-0.0527 0,0 -3.71533,-4.67089 -3.71533,-4.67089 0,0 -4.08692,5.09521 -4.08692,5.09521 0,0 -0.10595,0 -0.10595,0 0,0 -1.75147,-2.229 -1.75147,-2.229 -0.0532,0.0527 -0.10596,0.0527 -0.10596,0.0527 0,0 0.10596,-0.0527 0.10596,-0.0527 0,0 -2.33545,-2.86621 -2.33545,-2.86621 0,0 -3.92724,4.88281 -3.92724,4.88281 -0.0532,0 -0.10645,0.0532 -0.21241,0.10644 0,0 0,0 0,0 -0.0532,0.0527 -0.0532,0.0527 -0.10595,0.0527 0,0 0.0527,-0.0527 0.0527,-0.0527 0,0 -3.98047,-4.98925 -3.98047,-4.98925 0,0 -4.13965,5.09521 -4.13965,5.09521 0,0 0,49.67774 0,49.67774 0,0 4.13965,5.09521 4.13965,5.09521 0,0 4.08692,-5.09521 4.08692,-5.09521 0,0 4.08642,5.09521 4.08642,5.09521 0,0 4.08692,-5.09521 4.08692,-5.09521 0,0 0.10595,0 0.10595,0 0,0 4.08692,5.09521 4.08692,5.09521 0,0 4.08691,-5.09521 4.08691,-5.09521 0,0 0.0527,0 0.0527,0 0,0 4.08691,5.09521 4.08691,5.09521 0,0 4.08691,-5.04199 4.08691,-5.04199 0,0 0,-40.86719 0,-40.86719 0,-0.2124 0,-0.4248 0,-0.58398 0,0 0,0 0,0 0,0 0.0527,-8.27979 0.0527,-8.27979 z"
           inkscape:connector-curvature="0" />
        <path
           id="path3066"
           style="fill:#231f20;fill-opacity:1;fill-rule:nonzero;stroke:none"
           d="m 575.65625,-798.62891 c 0,0 0,0 0,0 0,0 -4.14014,-5.09521 -4.14014,-5.09521 0,0 -3.98047,4.98877 -3.98047,4.98877 -0.15918,-0.10596 -0.26513,-0.15918 -0.37158,-0.21192 -0.0527,-0.0532 -0.10595,-0.0532 -0.10595,-0.0532 0,0 -3.76807,-4.72363 -3.76807,-4.72363 0,0 -4.08691,5.09521 -4.08691,5.09521 0,0 -0.10596,0 -0.10596,0 0,0 -4.03418,-5.09521 -4.03418,-5.09521 0,0 -3.92725,4.82959 -3.92725,4.82959 -0.10644,0.0532 -0.2124,0.10644 -0.31836,0.15918 0,0 -3.98047,-4.98877 -3.98047,-4.98877 0,0 -4.14013,5.09521 -4.14013,5.09521 0,0 0,49.67774 0,49.67774 0,0 4.14013,5.04199 4.14013,5.04199 0,0 4.0337,-5.04199 4.0337,-5.04199 0,0 4.19238,5.04199 4.19238,5.04199 0,0 4.03418,-5.04199 4.03418,-5.04199 0,0 0.10596,0 0.10596,0 0,0 4.08691,5.04199 4.08691,5.04199 0,0 4.0332,-5.04199 4.0332,-5.04199 0,0 0.10645,0 0.10645,0 0,0 4.08642,5.04199 4.08642,5.04199 0,0 4.14014,-5.04199 4.14014,-5.04199 0,0 0,0 0,0 0,0 0,-49.67774 0,-49.67774 z"
           inkscape:connector-curvature="0" />
        <path
           id="path3068"
           style="fill:#231f20;fill-opacity:1;fill-rule:nonzero;stroke:none"
           d="m 602.19336,-786.52783 c -5.99756,5.94385 -10.45557,12.52539 -13.42773,19.74365 -1.91114,4.77637 -3.2378,9.81885 -3.82129,15.1792 0,0 3.66211,5.30713 3.66211,5.30713 0,0 4.56445,-4.72315 4.56445,-4.72315 0,0 3.66211,5.46631 3.66211,5.46631 0,0 4.56396,-4.77636 4.56396,-4.77636 0,0 3.6626,5.46679 3.6626,5.46679 0,0 4.56397,-4.6709 4.56397,-4.6709 0,0 3.60937,5.41407 3.60937,5.41407 0,0 4.56445,-4.72364 4.56445,-4.72364 0,0 0.0527,0.0527 0.0527,0.0527 0.90234,-5.51953 3.45019,-10.29639 7.64306,-14.43653 4.08692,-4.13964 8.86329,-6.68701 14.33008,-7.58935 0,0 4.67041,-4.56445 4.67041,-4.56445 0,0 -5.41357,-3.66211 -5.41357,-3.66211 0,0 4.72363,-4.51172 4.72363,-4.51172 0,0 -5.46631,-3.66162 -5.46631,-3.66162 0,0 4.72315,-4.56446 4.72315,-4.56446 0,0 -5.41309,-3.60937 -5.41309,-3.60937 0,0 -0.0532,-0.0527 -0.0532,-0.0527 0,0 4.77685,-4.56445 4.77685,-4.56445 0,0 -5.46679,-3.76855 -5.46679,-3.76855 -9.34131,1.16796 -17.88623,4.35205 -25.58203,9.60644 -3.18457,2.17627 -6.2627,4.72363 -9.12891,7.64307 z"
           inkscape:connector-curvature="0" />
        <path
           id="path3070"
           style="fill:#231f20;fill-opacity:1;fill-rule:nonzero;stroke:none"
           d="m 652.13623,-795.44434 c 0,0 -0.0527,0.0527 -0.0527,0.0527 0,0 -5.41358,3.60937 -5.41358,3.60937 0,0 4.72363,4.56446 4.72363,4.56446 0,0 -5.41357,3.66162 -5.41357,3.66162 0,0 4.67041,4.51172 4.67041,4.51172 0,0 -5.41309,3.66211 -5.41309,3.66211 0,0 4.72315,4.56445 4.72315,4.56445 5.36084,0.95508 10.08398,3.44971 14.22412,7.58935 4.08691,4.08692 6.63428,8.81055 7.58936,14.1709 0.0532,0.10645 0.0532,0.26563 0.10644,0.37158 0,0 4.40527,4.56495 4.40527,4.56495 0,0 3.60889,-5.41407 3.60889,-5.41407 0,0 4.56445,4.6709 4.56445,4.6709 0,0 3.6626,-5.46679 3.6626,-5.46679 0,0 4.56397,4.77636 4.56397,4.77636 0,0 3.60888,-5.46631 3.60888,-5.46631 0,0 4.61768,4.72315 4.61768,4.72315 0,0 3.76807,-5.41309 3.76807,-5.41309 -0.10596,-1.00879 -0.26514,-1.96386 -0.42432,-2.91943 0,0 0,-0.10596 0,-0.10596 -2.06982,-12.10107 -7.64258,-22.6626 -16.77148,-31.7915 -2.91944,-2.91944 -5.94434,-5.4668 -9.18213,-7.64307 -7.64258,-5.25439 -16.13428,-8.43848 -25.47559,-9.60644 0,0 -5.41406,3.76855 -5.41406,3.76855 0,0 4.72363,4.56445 4.72363,4.56445 z"
           inkscape:connector-curvature="0" />
        <path
           id="path3072"
           style="fill:#231f20;fill-opacity:1;fill-rule:nonzero;stroke:none"
           d="m 744.91113,-797.88574 c -5.52002,2.8125 -10.61523,6.58105 -15.33886,11.30469 -9.92481,9.9248 -15.70997,21.60107 -17.24952,34.92285 0,0 3.71534,5.36035 3.71534,5.36035 0,0 4.56445,-4.72315 4.56445,-4.72315 0,0 0,0 0,0 0,0 3.66211,5.41309 3.66211,5.41309 0,0 4.51172,-4.72314 4.51172,-4.72314 0,0 3.66211,5.46679 3.66211,5.46679 0,0 4.56445,-4.6709 4.56445,-4.6709 0,0 3.60889,5.41407 3.60889,5.41407 0,0 4.56445,-4.72364 4.56445,-4.72364 0,0 0.0527,0 0.0527,0 0.95557,-5.46679 3.50342,-10.24365 7.64307,-14.43652 4.08691,-4.08691 8.86328,-6.63428 14.33008,-7.58984 0,0 0,0 0,0 0,0 4.72363,-4.51123 4.72363,-4.51123 0,0 -5.4668,-3.66211 -5.4668,-3.66211 0,0 4.72364,-4.56446 4.72364,-4.56446 0,0 -5.4668,-3.66211 -5.4668,-3.66211 0,0 4.72363,-4.51123 4.72363,-4.51123 0,0 -5.41357,-3.66211 -5.41357,-3.66211 0,0 0,0 0,0 0,0 4.72363,-4.56445 4.72363,-4.56445 0,0 -5.41308,-3.76855 -5.41308,-3.76855 -6.95313,0.84912 -13.42823,2.81298 -19.4253,5.8916 z"
           inkscape:connector-curvature="0" />
        <path
           id="path3074"
           style="fill:#231f20;fill-opacity:1;fill-rule:nonzero;stroke:none"
           d="m 346.85181,-786.2627 c -0.7959,0.68995 -1.53931,1.37989 -2.28223,2.12305 -11.41113,11.46436 -17.14307,25.26319 -17.14307,41.50391 0,16.18799 5.73194,29.9873 17.14307,41.45166 11.46411,11.41064 25.26343,17.14306 41.50439,17.14306 16.18775,0 29.98707,-5.73242 41.45142,-17.14306 11.41065,-11.46436 17.14307,-25.26367 17.14307,-41.45166 0,-13.69287 -4.03369,-25.63477 -12.1543,-35.87793 -1.53906,-1.96387 -3.18457,-3.82129 -4.98877,-5.62598 -6.74072,-6.6875 -14.22436,-11.41113 -22.55688,-14.22412 0,0 0,27.43945 0,27.43945 1.80444,1.22071 3.50268,2.65381 5.09497,4.2461 4.24585,4.24609 7.16504,9.07568 8.65136,14.43652 0.84912,3.0249 1.27369,6.20996 1.27369,9.60596 0,9.34131 -3.29053,17.35547 -9.92505,23.98974 -6.63428,6.63428 -14.6482,9.9253 -23.98951,9.9253 -9.39428,0 -17.40844,-3.29102 -24.04296,-9.9253 -6.63428,-6.63427 -9.92481,-14.64843 -9.92481,-23.98974 0,-3.396 0.42456,-6.58106 1.27393,-9.60596 1.48584,-5.36084 4.40478,-10.19043 8.65088,-14.43652 1.6455,-1.59229 3.34375,-3.02539 5.09521,-4.2461 0,0 0,-27.43945 0,-27.43945 -7.3772,2.49463 -14.17065,6.52832 -20.27441,12.10107 z"
           inkscape:connector-curvature="0" />
        <path
           id="path3076"
           style="fill:#231f20;fill-opacity:1;fill-rule:nonzero;stroke:none"
           d="m 360.33276,-647.3667 c 0,0 0,-8.59814 0,-8.59814 0,0 -4.08691,-5.09473 -4.08691,-5.09473 0,0 -4.08643,5.09473 -4.08643,5.09473 0,0 -4.13989,-5.09473 -4.13989,-5.09473 0,0 -4.08667,5.09473 -4.08667,5.09473 0,0 -0.053,0 -0.053,0 0,0 -4.08691,-5.09473 -4.08691,-5.09473 0,0 -4.08667,5.09473 -4.08667,5.09473 0,0 -0.0532,0 -0.0532,0 0,0 -4.1399,-5.09473 -4.1399,-5.09473 0,0 -4.08667,5.09473 -4.08667,5.09473 0,0 0,0 0,0 0,0 0,47.44921 0,47.44921 2.54737,-8.27978 6.79346,-15.81689 12.73804,-22.66308 1.16748,-1.32715 2.33496,-2.60059 3.60889,-3.87451 0.0532,-0.0532 0.0532,-0.0532 0.0532,-0.0532 5.09522,-5.09521 10.61475,-9.18212 16.5061,-12.26025 z"
           inkscape:connector-curvature="0" />
        <path
           id="path3078"
           style="fill:#231f20;fill-opacity:1;fill-rule:nonzero;stroke:none"
           d="m 344.99414,-633.88574 c -1.27393,1.2207 -2.44141,2.49511 -3.55591,3.76855 -7.74902,9.07569 -12.31347,19.4253 -13.69311,31.15479 0,0 3.71509,5.30713 3.71509,5.30713 0,0 4.5642,-4.72364 4.5642,-4.72364 0,0 3.66236,5.4668 3.66236,5.4668 0,0 4.51147,-4.77685 4.51147,-4.77685 0,0 3.66211,5.46728 3.66211,5.46728 0,0 4.56445,-4.6709 4.56445,-4.6709 0,0 3.60889,5.41358 3.60889,5.41358 0,0 4.56445,-4.72364 4.56445,-4.72364 0,0 0.053,0.0532 0.053,0.0532 0.95533,-5.52002 3.44995,-10.29688 7.64283,-14.43653 4.08667,-4.13965 8.86328,-6.68701 14.33032,-7.58984 0,0 0,0 0,0 0,0 4.67041,-4.56445 4.67041,-4.56445 0,0 -5.41358,-3.66163 -5.41358,-3.66163 0,0 4.72364,-4.56494 4.72364,-4.56494 0,0 -5.4668,-3.66162 -5.4668,-3.66162 0,0 4.72388,-4.51123 4.72388,-4.51123 0,0 -5.41382,-3.6626 -5.41382,-3.6626 0,0 4.72363,-4.56445 4.72363,-4.56445 0,0 -5.4668,-3.76855 -5.4668,-3.76855 -6.89941,0.84961 -13.37475,2.81347 -19.37207,5.8916 -5.51977,2.81299 -10.61474,6.58154 -15.33862,11.35791 z"
           inkscape:connector-curvature="0" />
        <path
           id="path3080"
           style="fill:#231f20;fill-opacity:1;fill-rule:nonzero;stroke:none"
           d="m 394.93726,-642.80225 c 0,0 -0.053,0.0532 -0.053,0.0532 0,0 -5.3606,3.60937 -5.3606,3.60937 0,0 4.67041,4.51123 4.67041,4.51123 0,0 -5.41333,3.66162 -5.41333,3.66162 0,0 4.67041,4.56494 4.67041,4.56494 0,0 -5.41357,3.66163 -5.41357,3.66163 0,0 4.72387,4.56445 4.72387,4.56445 5.41333,0.95508 10.13697,3.45019 14.22388,7.58984 4.08692,4.08692 6.63428,8.81055 7.64258,14.11768 0,0 -0.0532,-0.10547 -0.0532,-0.10547 0,0.0527 0,0.10547 0.0532,0.10547 0,0.15967 0,0.31885 0.0532,0.4248 0,0 4.40503,4.56446 4.40503,4.56446 0,0 3.66236,-5.41358 3.66236,-5.41358 0,0 4.51123,4.6709 4.51123,4.6709 0,0 3.66211,-5.46728 3.66211,-5.46728 0,0 4.56445,4.77685 4.56445,4.77685 0,0 3.60888,-5.41357 3.60888,-5.41357 0,0 0.0532,-0.0532 0.0532,-0.0532 0,0 4.56445,4.72364 4.56445,4.72364 0,0 3.76807,-5.41358 3.76807,-5.41358 -0.10596,-1.0083 -0.26514,-1.96386 -0.42432,-2.91894 0,0 0,-0.10645 0,-0.10645 -2.01709,-12.10058 -7.64258,-22.6626 -16.77148,-31.7915 -9.8191,-9.87158 -21.38916,-15.60401 -34.65772,-17.24951 0,0 -5.41382,3.76855 -5.41382,3.76855 0,0 4.72364,4.56445 4.72364,4.56445 z"
           inkscape:connector-curvature="0" />
        <path
           id="path3082"
           style="fill:#231f20;fill-opacity:1;fill-rule:nonzero;stroke:none"
           d="m 682.33594,-638.07861 c -1.27393,-1.0083 -2.60059,-1.96387 -3.92774,-2.91895 -0.63623,-0.42432 -1.27343,-0.7959 -1.85742,-1.2207 -1.32666,-0.7959 -2.65332,-1.53906 -3.98047,-2.22901 -6.05078,-3.07861 -12.47265,-5.04248 -19.42529,-5.8916 0,0 -5.41357,3.76807 -5.41357,3.76807 0,0 4.72363,4.56494 4.72363,4.56494 0,0 0,0 0,0 0,0 -5.41406,3.66211 -5.41406,3.66211 0,0 4.72412,4.51123 4.72412,4.51123 0,0 -5.4668,3.66211 -5.4668,3.66211 0,0 4.72363,4.56445 4.72363,4.56445 0,0 -5.46679,3.66162 -5.46679,3.66162 0,0 4.72363,4.56495 4.72363,4.56495 0,0 0,0 0,0 5.4668,0.90234 10.24365,3.4497 14.33057,7.58935 4.13964,4.14014 6.68701,8.91699 7.64257,14.43652 0,0 0.0527,-0.0532 0.0527,-0.0532 0,0 4.56494,4.72363 4.56494,4.72363 0,0 3.60889,-5.41357 3.60889,-5.41357 0,0 4.56396,4.6709 4.56396,4.6709 0,0 3.6626,-5.4668 3.6626,-5.4668 0,0 4.51123,4.72363 4.51123,4.72363 0,0 3.66211,-5.36035 3.66211,-5.36035 0,0 0,-0.0537 0,-0.0537 0,0 4.56445,4.72412 4.56445,4.72412 0,0 3.71484,-5.30713 3.71484,-5.30713 -1.16748,-10.13769 -4.77636,-19.21337 -10.7207,-27.3872 -1.96338,-2.60059 -4.19287,-5.09473 -6.63428,-7.53614 -1.75195,-1.80468 -3.55615,-3.45019 -5.46679,-4.98925 z"
           inkscape:connector-curvature="0" />
        <path
           id="path3084"
           style="fill:#231f20;fill-opacity:1;fill-rule:nonzero;stroke:none"
           d="m 642.68945,-646.5708 c 0,0 -5.46728,-3.76807 -5.46728,-3.76807 -9.18164,1.16797 -17.5669,4.2461 -25.15674,9.34131 -3.29102,2.28223 -6.4751,4.8833 -9.50049,7.9082 -9.1289,9.12842 -14.70166,19.69043 -16.77148,31.79151 0,0 0,0.10644 0,0.10644 -0.15967,0.95508 -0.31836,1.91016 -0.42481,2.91846 0,0 3.82129,5.41406 3.82129,5.41406 0,0 4.56445,-4.72412 4.56445,-4.72412 0,0 0,0.0537 0,0.0537 0,0 3.60938,5.36035 3.60938,5.36035 0,0 4.56396,-4.72363 4.56396,-4.72363 0,0 3.6626,5.4668 3.6626,5.4668 0,0 4.56397,-4.6709 4.56397,-4.6709 0,0 3.60937,5.41357 3.60937,5.41357 0,0 4.45801,-4.56396 4.45801,-4.56396 0,-0.10645 0,-0.26563 0.0537,-0.42481 0.95508,-5.30761 3.50293,-10.03125 7.58936,-14.11816 4.14013,-4.13965 8.86377,-6.63428 14.27685,-7.58935 0,0 4.6709,-4.56495 4.6709,-4.56495 0,0 -5.41406,-3.66162 -5.41406,-3.66162 0,0 4.72363,-4.56445 4.72363,-4.56445 0,0 -5.46631,-3.66211 -5.46631,-3.66211 0,0 4.72315,-4.51123 4.72315,-4.51123 0,0 -5.46631,-3.66211 -5.46631,-3.66211 0,0 4.77685,-4.56494 4.77685,-4.56494 z"
           inkscape:connector-curvature="0" />
        <path
           id="path3086"
           style="fill:#231f20;fill-opacity:1;fill-rule:nonzero;stroke:none"
           d="m 712.95996,-600.87305 c -0.15918,0.90186 -0.26562,1.91065 -0.37158,2.86573 0,0 3.76855,5.46679 3.76855,5.46679 0,0 4.56397,-4.72363 4.56397,-4.72363 0,0 0.0532,0 0.0532,0 0,0 3.60889,5.41357 3.60889,5.41357 0,0 4.56494,-4.72314 4.56494,-4.72314 0,0 3.66211,5.46631 3.66211,5.46631 0,0 4.51123,-4.72363 4.51123,-4.72363 0,0 3.66211,5.41308 3.66211,5.41308 0,0 4.40527,-4.51123 4.40527,-4.51123 0.0532,-0.15869 0.0532,-0.31787 0.0532,-0.42432 1.00831,-5.36035 3.55567,-10.08398 7.64258,-14.17089 4.08643,-4.08692 8.86328,-6.63428 14.22364,-7.58985 0,0 4.72363,-4.56396 4.72363,-4.56396 0,0 -5.41309,-3.66211 -5.41309,-3.66211 0,0 4.67041,-4.51172 4.67041,-4.51172 0,0 -5.46679,-3.66211 -5.46679,-3.66211 0,0 4.77685,-4.56445 4.77685,-4.56445 0,0 -5.4668,-3.66211 -5.4668,-3.66211 0,0 4.72364,-4.56446 4.72364,-4.56446 0,0 -5.41358,-3.71484 -5.41358,-3.71484 -9.23535,1.11426 -17.62109,4.24609 -25.15722,9.34131 -3.34375,2.22851 -6.52832,4.88183 -9.50049,7.85449 -9.18213,9.12891 -14.75488,19.74414 -16.77149,31.79151 0,0 -0.0532,0.15966 -0.0532,0.15966 z"
           inkscape:connector-curvature="0" />
        <path
           id="path3088"
           style="fill:#231f20;fill-opacity:1;fill-rule:nonzero;stroke:none"
           d="m 522.74072,-642.80225 c 0,0 0,0.0532 0,0.0532 0,0 -5.41357,3.60937 -5.41357,3.60937 0,0 4.72363,4.56397 4.72363,4.56397 0,0 -5.41357,3.66211 -5.41357,3.66211 0,0 4.67041,4.51171 4.67041,4.51171 0,0 -5.41309,3.66163 -5.41309,3.66163 0,0 4.72363,4.56445 4.72363,4.56445 5.36036,0.95508 10.08399,3.45019 14.22364,7.58984 4.08691,4.08692 6.63476,8.81055 7.58935,14.1709 0.0532,0.10645 0.0532,0.26563 0.10645,0.37158 0,0 4.35205,4.56446 4.35205,4.56446 0,0 3.66211,-5.41358 3.66211,-5.41358 0,0 4.56445,4.6709 4.56445,4.6709 0,0 3.6626,-5.46728 3.6626,-5.46728 0,0 4.56396,4.77685 4.56396,4.77685 0,0 3.60889,-5.4668 3.60889,-5.4668 0,0 4.61768,4.72364 4.61768,4.72364 0,0 3.76855,-5.41358 3.76855,-5.41358 -0.10644,-1.0083 -0.26514,-1.96386 -0.4248,-2.91894 0,0 0,-0.10645 0,-0.10645 -2.06983,-12.10058 -7.64258,-22.6626 -16.77149,-31.7915 -2.91894,-2.91895 -5.94433,-5.46631 -9.18213,-7.64258 -7.64258,-5.25439 -16.13427,-8.43848 -25.47558,-9.60693 0,0 -5.41358,3.76855 -5.41358,3.76855 0,0 4.67041,4.56445 4.67041,4.56445 z"
           inkscape:connector-curvature="0" />
        <path
           id="path3090"
           style="fill:#231f20;fill-opacity:1;fill-rule:nonzero;stroke:none"
           d="m 513.02832,-647.3667 c 0,0 -5.46631,-3.76855 -5.46631,-3.76855 -9.3418,1.16845 -17.88672,4.35254 -25.58252,9.60693 -3.18457,2.17627 -6.26269,4.72363 -9.1289,7.64258 -5.99756,5.94433 -10.45557,12.52588 -13.42774,19.74414 -1.91064,4.77637 -3.2373,9.81836 -3.82129,15.1792 0,0 3.66211,5.30713 3.66211,5.30713 0,0 4.56446,-4.72364 4.56446,-4.72364 0,0 3.6621,5.4668 3.6621,5.4668 0,0 4.56446,-4.77685 4.56446,-4.77685 0,0 3.66211,5.46728 3.66211,5.46728 0,0 4.56445,-4.6709 4.56445,-4.6709 0,0 3.60889,5.41358 3.60889,5.41358 0,0 4.56445,-4.72364 4.56445,-4.72364 0,0 0.0532,0.0532 0.0532,0.0532 0.90235,-5.52002 3.4502,-10.29688 7.64258,-14.43653 4.08691,-4.13965 8.86377,-6.68701 14.33008,-7.58984 0,0 4.67041,-4.56445 4.67041,-4.56445 0,0 -5.41358,-3.66163 -5.41358,-3.66163 0,0 4.72364,-4.51171 4.72364,-4.51171 0,0 -5.46631,-3.66211 -5.46631,-3.66211 0,0 4.72363,-4.56397 4.72363,-4.56397 0,0 -5.41357,-3.60937 -5.41357,-3.60937 0,0 -0.0532,-0.0532 -0.0532,-0.0532 0,0 4.77686,-4.56445 4.77686,-4.56445 z"
           inkscape:connector-curvature="0" />
        <path
           id="path3092"
           style="fill:#f1471d;fill-opacity:1;fill-rule:nonzero;stroke:none"
           d="m 901.32178,-693.64746 c 5.89111,0.0532 11.03955,-1.69824 15.49756,-5.14844 5.94384,0.37158 11.35791,0.90235 16.1875,1.69824 6.26318,0.95557 10.24365,2.12305 12.04785,3.39698 0.74365,0.53125 1.11523,1.06201 1.11523,1.64502 0,1.53955 -2.65429,2.8667 -8.01465,4.0874 -1.48632,0.31836 -3.2373,0.63672 -5.14843,0.95508 -8.75684,1.37988 -19.31885,2.06982 -31.68506,2.06982 -12.41992,0 -22.98145,-0.68994 -31.73877,-2.06982 -1.69873,-0.26563 -3.18457,-0.53077 -4.56446,-0.84912 -5.73193,-1.2212 -8.59814,-2.60059 -8.59814,-4.19336 0,-0.74268 0.58398,-1.3794 1.69873,-2.01661 1.96387,-1.11425 5.78467,-2.17578 11.46387,-3.02539 4.83008,-0.79589 10.24316,-1.32666 16.24072,-1.69824 0.42481,0.37158 0.84912,0.68994 1.27393,1.0083 4.13964,2.75977 8.86328,4.19336 14.22412,4.14014 z m -6.4751,-16.24121 c -0.63721,-0.47754 -1.16797,-0.95508 -1.69873,-1.48584 -0.10596,-0.10596 -0.15869,-0.21192 -0.26563,-0.26563 -0.26513,-0.31836 -0.58349,-0.63672 -0.84863,-1.0083 -0.58398,-0.68994 -1.11523,-1.43261 -1.53955,-2.12304 -2.65332,-4.19288 -3.66211,-8.96924 -3.13135,-14.32959 0.90235,-8.33301 5.51953,-18.15186 13.95899,-29.35059 14.64843,19.53174 17.88623,34.65771 9.65967,45.37891 -0.53125,0.63671 -1.11524,1.32666 -1.69874,1.96337 -2.229,2.07032 -4.83007,3.07862 -7.96093,3.07862 -2.44141,0.0527 -4.61768,-0.5835 -6.4751,-1.85791 z m 24.52051,8.70459 c 1.06103,-1.16797 2.06933,-2.33545 3.0249,-3.55615 17.93896,-23.35254 10.93359,-56.36524 -21.07031,-98.98389 -18.41748,24.52051 -28.60742,45.85644 -30.46533,64.00781 -1.22071,11.72949 1.06152,22.18506 6.79394,31.26074 1.00879,1.59229 2.12305,3.18506 3.34375,4.6709 0.5835,0.7959 1.16748,1.53906 1.85742,2.22901 0.10596,0.15918 0.2124,0.26562 0.3711,0.37158 -9.02246,0.47754 -17.08936,1.2207 -24.25489,2.38818 -11.67627,1.85791 -17.51416,4.08643 -17.51416,6.74024 0,2.60107 5.83789,4.8833 17.51416,6.74072 11.67676,1.85791 25.79493,2.76025 42.35401,2.76025 16.50586,0 30.62402,-0.90234 42.30029,-2.76025 11.67627,-1.85742 17.51465,-4.13965 17.51465,-6.74072 0,-2.65381 -5.83838,-4.88233 -17.51465,-6.74024 -7.16504,-1.16748 -15.23242,-1.91064 -24.25488,-2.38818 z"
           inkscape:connector-curvature="0" />
        <path
           id="path3094"
           style="fill:#f1471d;fill-opacity:1;fill-rule:nonzero;stroke:none"
           d="m 828.55615,-743.75 c 0,0 -4.08642,5.09521 -4.08642,5.09521 0,0 -4.14014,-5.09521 -4.14014,-5.09521 0,0 -4.08643,5.09521 -4.08643,5.09521 0,0 -0.0532,0 -0.0532,0 0,0 -4.08642,-5.09521 -4.08642,-5.09521 0,0 -4.08692,5.09521 -4.08692,5.09521 0,0 -0.10644,0 -0.10644,0 0,0 -4.08643,-5.09521 -4.08643,-5.09521 0,0 -4.03369,5.04199 -4.03369,5.04199 0,0 -0.10645,49.94336 -0.10645,49.94336 0,0 0.0532,0 0.0532,0 0,0 4.08691,5.04199 4.08691,5.04199 0,0 4.08643,-4.98877 4.08643,-4.98877 0.0532,0.0532 0.15918,0.10596 0.26562,0.21192 0.10596,0 0.15918,0.0532 0.26514,0.10644 0,0 -0.10596,0.0532 -0.10596,0.0532 0,0 3.76856,4.61718 3.76856,4.61718 0,0 4.08642,-5.04199 4.08642,-5.04199 0,0 0.0532,0 0.0532,0 0,0 1.75147,2.17627 1.75147,2.17627 0.0527,0 0.10644,0 0.10644,0 0,0 -0.0537,0.0527 -0.0537,0.0527 0,0 2.28223,2.81298 2.28223,2.81298 0,0 3.92773,-4.83007 3.92773,-4.83007 0,0 0,0 0,0 0.0527,-0.0527 0.10596,-0.10547 0.21241,-0.10547 0,0 0.0532,-0.0532 0.0532,-0.0532 0,0 0.0527,0 0.0527,0 0,0 -0.0527,0.0532 -0.0527,0.0532 0,0 4.0332,4.93554 4.0332,4.93554 0,0 4.08692,-5.04199 4.08692,-5.04199 0,0 0,-49.89014 0,-49.89014 0,0 -4.08692,-5.09521 -4.08692,-5.09521 z"
           inkscape:connector-curvature="0" />
        <path
           id="path3096"
           style="fill:#f1471d;fill-opacity:1;fill-rule:nonzero;stroke:none"
           d="m 840.44531,-582.7749 c 0.10596,0.95556 0.21192,1.91064 0.3711,2.86621 0,0 0.0532,0.15918 0.0532,0.15918 2.0166,12.04785 7.58935,22.60986 16.77148,31.7915 9.81885,9.87158 21.38916,15.55078 34.6045,17.19629 0,0 5.46728,-3.71533 5.46728,-3.71533 0,0 -4.72363,-4.56445 -4.72363,-4.56445 0,0 0,-0.0532 0,-0.0532 0,0 5.41308,-3.6084 5.41308,-3.6084 0,0 -4.72363,-4.56494 -4.72363,-4.56494 0,0 5.4668,-3.66162 5.4668,-3.66162 0,0 -4.72363,-4.51172 -4.72363,-4.51172 0,0 5.46679,-3.66211 5.46679,-3.66211 0,0 -4.72363,-4.56445 -4.72363,-4.56445 -5.41358,-0.95508 -10.13721,-3.50293 -14.22412,-7.58935 -4.08692,-4.08692 -6.63428,-8.81104 -7.64258,-14.17139 0,-0.10596 -0.0532,-0.26514 -0.0532,-0.42432 0,0 -4.40528,-4.51172 -4.40528,-4.51172 0,0 -3.66211,5.41358 -3.66211,5.41358 0,0 -4.56445,-4.72315 -4.56445,-4.72315 0,0 -3.6626,5.4668 -3.6626,5.4668 0,0 -4.51074,-4.72412 -4.51074,-4.72412 0,0 -3.60889,5.41357 -3.60889,5.41357 0,0 -0.0532,0 -0.0532,0 0,0 -4.56445,-4.72314 -4.56445,-4.72314 0,0 -3.76807,5.46631 -3.76807,5.46631 z"
           inkscape:connector-curvature="0" />
        <path
           id="path3098"
           style="fill:#f1471d;fill-opacity:1;fill-rule:nonzero;stroke:none"
           d="m 828.60938,-587.92285 c 0,0 -4.56446,4.72363 -4.56446,4.72363 0,0 -3.66211,-5.4668 -3.66211,-5.4668 0,0 -4.51123,4.72364 -4.51123,4.72364 0,0 -3.66211,-5.41407 -3.66211,-5.41407 0,0 -4.56445,4.6709 -4.56445,4.6709 0,0 -3.66211,-5.41357 -3.66211,-5.41357 0,0 -4.51172,4.67041 -4.51172,4.67041 0,0 -0.0527,0 -0.0527,0 -0.15918,0.74316 -0.31885,1.4331 -0.47803,2.12305 -1.16748,4.61718 -3.55566,8.70459 -7.16455,12.31347 -4.08692,4.08692 -8.86377,6.63428 -14.33057,7.58936 0,0 0,0 0,0 0,0 -4.72363,4.61767 -4.72363,4.61767 0,0 5.41357,3.60938 5.41357,3.60938 0,0 -4.67041,4.51123 -4.67041,4.51123 0,0 5.4668,3.66211 5.4668,3.66211 0,0 -4.72363,4.56445 -4.72363,4.56445 0,0 5.41357,3.60889 5.41357,3.60889 0,0 0,0.0527 0,0.0527 0,0 -4.72314,4.56446 -4.72314,4.56446 0,0 5.41308,3.71582 5.41308,3.71582 13.32178,-1.59229 24.89209,-7.32471 34.76368,-17.19629 1.38037,-1.37989 2.6538,-2.76026 3.875,-4.19287 7.53613,-8.96973 11.99462,-19.21289 13.37402,-30.73047 0,0 -3.71484,-5.30713 -3.71484,-5.30713 z"
           inkscape:connector-curvature="0" />
        <path
           id="path3100"
           style="fill:#f1471d;fill-opacity:1;fill-rule:nonzero;stroke:none"
           d="m 927.2749,-585.69385 c 0,0 0,0 0,0 -0.95508,5.4668 -3.50293,10.24317 -7.64258,14.43653 -4.14013,4.08642 -8.9165,6.63427 -14.33007,7.58935 0,0 -4.72364,4.56445 -4.72364,4.56445 0,0 5.41358,3.66211 5.41358,3.66211 0,0 -4.67041,4.51172 -4.67041,4.51172 0,0 5.46631,3.66162 5.46631,3.66162 0,0 -4.77637,4.56494 -4.77637,4.56494 0,0 5.41308,3.6084 5.41308,3.6084 0,0 0.0532,0.0532 0.0532,0.0532 0,0 -4.72364,4.56445 -4.72364,4.56445 0,0 5.41358,3.71533 5.41358,3.71533 6.95264,-0.84912 13.375,-2.81299 19.37256,-5.83838 5.51953,-2.81299 10.66797,-6.63428 15.39111,-11.35791 9.92529,-9.9248 15.65723,-21.60107 17.24951,-34.92285 0,0 -3.71533,-5.36035 -3.71533,-5.36035 0,0 -4.56396,4.72314 -4.56396,4.72314 0,0 -0.0532,0 -0.0532,0 0,0 -3.60937,-5.41357 -3.60937,-5.41357 0,0 -4.51123,4.72412 -4.51123,4.72412 0,0 -3.66211,-5.4668 -3.66211,-5.4668 0,0 -4.56446,4.72315 -4.56446,4.72315 0,0 -3.6621,-5.41358 -3.6621,-5.41358 0,0 -4.56446,4.6709 -4.56446,4.6709 z"
           inkscape:connector-curvature="0" />
        <path
           id="path3102"
           style="fill:#f1471d;fill-opacity:1;fill-rule:nonzero;stroke:none"
           d="m 950.41553,-548.06445 c -0.2124,0.26562 -0.47803,0.58447 -0.68994,0.95556 0,0 -2.28272,2.76026 -2.28272,2.76026 -0.0527,0 -0.0527,0 -0.0527,0 0,0 0,0.0527 0,0.0527 -1.16748,1.27393 -2.33545,2.54736 -3.55567,3.82129 -0.0532,0 -0.0532,0 -0.0532,0 0,0 0,0.0532 0,0.0532 -0.0532,0 -0.0532,0 -0.0532,0 0,0 0,0.0532 0,0.0532 -0.47754,0.42431 -0.90186,0.84912 -1.32715,1.27343 0,0 -4.0332,3.55616 -4.0332,3.55616 -0.15918,0.10595 -0.31836,0.2124 -0.42481,0.37158 0,0 -5.36084,3.87451 -5.36084,3.87451 -1.48584,0.95557 -3.07764,1.91064 -4.6167,2.75977 -0.26562,0.10595 -0.47803,0.26513 -0.74316,0.37158 0,0 0,7.43066 0,7.43066 0,0 4.08642,5.09473 4.08642,5.09473 0,0 4.13965,-5.09473 4.13965,-5.09473 0,0 4.08692,5.09473 4.08692,5.09473 0,0 4.08691,-5.09473 4.08691,-5.09473 0,0 0.0532,0 0.0532,0 0,0 4.08643,5.09473 4.08643,5.09473 0,0 4.14014,-5.09473 4.14014,-5.09473 0,0 0.0527,0 0.0527,0 0,0 4.08643,5.09473 4.08643,5.09473 0,0 4.14013,-5.09473 4.14013,-5.09473 0,0 0,-46.22803 0,-46.22803 -2.12304,6.74073 -5.36035,13.05616 -9.76562,18.89405 z"
           inkscape:connector-curvature="0" />
        <path
           id="path3104"
           style="fill:#f1471d;fill-opacity:1;fill-rule:nonzero;stroke:none"
           d="m 943.67529,-513.56543 c 0,0 -0.0532,0 -0.0532,0 0,0 -4.08691,5.09473 -4.08691,5.09473 0,0 -4.08692,-5.09473 -4.08692,-5.09473 0,0 -4.13965,5.09473 -4.13965,5.09473 0,0 -4.08642,-5.09473 -4.08642,-5.09473 0,0 0,53.60498 0,53.60498 0,0 4.08642,5.0957 4.08642,5.0957 0,0 4.13965,-5.0957 4.13965,-5.0957 0,0 4.08692,5.0957 4.08692,5.0957 0,0 4.08691,-5.0957 4.08691,-5.0957 0,0 0.0532,0 0.0532,0 0,0 4.08643,5.0957 4.08643,5.0957 0,0 4.14014,-5.0957 4.14014,-5.0957 0,0 0.0527,0 0.0527,0 0,0 4.08643,5.0957 4.08643,5.0957 0,0 4.0874,-5.0957 4.0874,-5.0957 0,0 0.0527,0 0.0527,0 0,0 0,-53.60498 0,-53.60498 0,0 -4.14013,5.09473 -4.14013,5.09473 0,0 -4.08643,-5.09473 -4.08643,-5.09473 0,0 -0.0527,0 -0.0527,0 0,0 -4.14014,5.09473 -4.14014,5.09473 0,0 -4.08643,-5.09473 -4.08643,-5.09473 z"
           inkscape:connector-curvature="0" />
        <path
           id="path3106"
           style="fill:#f1471d;fill-opacity:1;fill-rule:nonzero;stroke:none"
           d="m 398.38696,-798.47021 c -0.10595,-3.23682 -1.27343,-6.0503 -3.60888,-8.33252 -2.44141,-2.44141 -5.36036,-3.60889 -8.70411,-3.60889 -3.4497,0 -6.31591,1.16748 -8.75732,3.60889 -2.28223,2.28222 -3.50293,5.04248 -3.60913,8.27978 0,0 0,41.29199 0,41.29199 0,3.4502 1.2207,6.31592 3.60913,8.75782 2.44141,2.38818 5.30762,3.60888 8.75732,3.60888 3.34375,0 6.2627,-1.2207 8.70411,-3.60888 2.4414,-2.4419 3.60888,-5.30762 3.60888,-8.75782 0,0 0,-41.23925 0,-41.23925 z"
           inkscape:connector-curvature="0" />
        <path
           id="path3108"
           style="fill:#f1471d;fill-opacity:1;fill-rule:nonzero;stroke:none"
           d="m 455.97314,-733.13477 c 0,0 0.0527,0.10596 0.0527,0.10596 2.01709,12.04785 7.58984,22.6626 16.77197,31.79199 9.81885,9.81836 21.38867,15.60352 34.60449,17.1958 0,0 5.4668,-3.71533 5.4668,-3.71533 0,0 -4.72412,-4.56445 -4.72412,-4.56445 0,0 0,-0.0527 0,-0.0527 0,0 5.41406,-3.60937 5.41406,-3.60937 0,0 -4.72412,-4.56445 -4.72412,-4.56445 0,0 5.4668,-3.66211 5.4668,-3.66211 0,0 -4.72315,-4.51123 -4.72315,-4.51123 0,0 5.46631,-3.66211 5.46631,-3.66211 0,0 -4.72363,-4.56494 -4.72363,-4.56494 0,0 0,0 0,0 -5.41358,-0.95459 -10.13721,-3.50245 -14.22412,-7.58887 -4.08643,-4.0874 -6.63428,-8.81104 -7.64258,-14.17139 0,0 0,0.15918 0,0.15918 0,-0.0527 0,-0.10596 0,-0.15918 -0.0532,-0.10595 -0.0532,-0.26513 -0.0532,-0.42431 0,0 -4.40479,-4.51123 -4.40479,-4.51123 0,0 -3.66211,5.41308 -3.66211,5.41308 0,0 -4.51123,-4.67041 -4.51123,-4.67041 0,0 -3.6626,5.41358 -3.6626,5.41358 0,0 -4.56396,-4.72364 -4.56396,-4.72364 0,0 -3.60938,5.41406 -3.60938,5.41406 0,0 -0.0532,0.0527 -0.0532,0.0527 0,0 -4.56445,-4.72363 -4.56445,-4.72363 0,0 -3.76807,5.41357 -3.76807,5.41357 0.10596,0.95557 0.2124,1.91065 0.37158,2.91943 z"
           inkscape:connector-curvature="0" />
        <path
           id="path3110"
           style="fill:#f1471d;fill-opacity:1;fill-rule:nonzero;stroke:none"
           d="m 327.42651,-586.17139 c 0,0 0,0 0,0 0,0 0,49.67725 0,49.67725 0,0 0,0 0,0 0,0 4.08667,5.04199 4.08667,5.04199 0,0 4.0337,-4.93555 4.0337,-4.93555 0.1062,0.0532 0.2124,0.15918 0.37158,0.21241 0,0 0.0532,0.0532 0.10595,0.0532 0,0 3.76856,4.66992 3.76856,4.66992 0,0 4.08691,-5.04199 4.08691,-5.04199 0,0 0.053,0 0.053,0 0,0 4.08667,5.04199 4.08667,5.04199 0,0 3.92725,-4.77637 3.92725,-4.77637 0.0532,-0.0532 0.15942,-0.10595 0.26538,-0.15918 0,0 4.03369,4.93555 4.03369,4.93555 0,0 4.08691,-5.04199 4.08691,-5.04199 0,0 0,-49.67725 0,-49.67725 0,0 -4.08691,-5.04248 -4.08691,-5.04248 0,0 -4.08643,5.04248 -4.08643,5.04248 0,0 -4.13989,-5.04248 -4.13989,-5.04248 0,0 -4.08667,5.04248 -4.08667,5.04248 0,0 -0.053,0 -0.053,0 0,0 -4.08691,-5.04248 -4.08691,-5.04248 0,0 -4.08667,5.04248 -4.08667,5.04248 0,0 -0.0532,0 -0.0532,0 0,0 -4.1399,-5.04248 -4.1399,-5.04248 0,0 -4.08667,5.04248 -4.08667,5.04248 z"
           inkscape:connector-curvature="0" />
        <path
           id="path3112"
           style="fill:#f1471d;fill-opacity:1;fill-rule:nonzero;stroke:none"
           d="m 745.07031,-738.70801 c 0,0 -4.08691,-5.04199 -4.08691,-5.04199 0,0 -4.13965,5.04199 -4.13965,5.04199 0,0 -4.08691,-5.04199 -4.08691,-5.04199 0,0 -4.08643,5.04199 -4.08643,5.04199 0,0 -0.10693,0 -0.10693,0 0,0 -4.03369,-5.04199 -4.03369,-5.04199 0,0 -4.08594,5.04199 -4.08594,5.04199 0,0 -0.10645,0 -0.10645,0 0,0 -4.08642,-5.04199 -4.08642,-5.04199 0,0 -4.08692,5.04199 -4.08692,5.04199 0,0 -0.0532,0 -0.0532,0 0,0 0,49.89014 0,49.89014 0,0 0.0532,0 0.0532,0 0,0 4.08692,5.04199 4.08692,5.04199 0,0 3.98047,-4.93555 3.98047,-4.93555 0.15918,0.0532 0.31787,0.1587 0.47753,0.26514 0,0 3.82081,4.67041 3.82081,4.67041 0,0 4.03369,-5.04199 4.03369,-5.04199 0,0 0.10693,0 0.10693,0 0,0 4.08643,5.04199 4.08643,5.04199 0,0 3.87451,-4.77685 3.87451,-4.77685 0.10595,-0.0527 0.2124,-0.10547 0.31836,-0.1587 0,0 4.03369,4.93555 4.03369,4.93555 0,0 4.08691,-5.04199 4.08691,-5.04199 0,0 0,-49.89014 0,-49.89014 z"
           inkscape:connector-curvature="0" />
        <path
           id="path3114"
           style="fill:#f1471d;fill-opacity:1;fill-rule:nonzero;stroke:none"
           d="m 639.87598,-716.89404 c 0,0 -0.0527,-0.0537 -0.0527,-0.0537 -5.41357,-0.95459 -10.1372,-3.50245 -14.27734,-7.58887 -3.55567,-3.60938 -5.99756,-7.69629 -7.16504,-12.26026 -0.15918,-0.58398 -0.31836,-1.16796 -0.42432,-1.75195 0,-0.0527 0,-0.10596 0,-0.10596 0,-0.15917 -0.0532,-0.31835 -0.0532,-0.4248 0,0 -4.40527,-4.56396 -4.40527,-4.56396 0,0 -0.21192,0.31835 -0.21192,0.31835 0,0 -0.0532,-0.0532 -0.0532,-0.0532 0,0 -3.44971,5.09473 -3.44971,5.09473 0,0 -4.51172,-4.61719 -4.51172,-4.61719 0,0 -0.15918,0.26514 -0.15918,0.26514 0,0 -0.0527,-0.0527 -0.0527,-0.0527 0,0 -3.44971,5.14844 -3.44971,5.14844 0,0 -4.51172,-4.6709 -4.51172,-4.6709 0,0 -0.2124,0.31885 -0.2124,0.31885 0,0 -0.0527,-0.0532 -0.0527,-0.0532 0,0 -3.44971,5.14843 -3.44971,5.14843 0,0 -4.51172,-4.67089 -4.51172,-4.67089 0,0 -0.2124,0.26513 -0.2124,0.26513 0,0 -0.0527,-0.0527 -0.0527,-0.0527 0,0 -3.66211,5.30713 -3.66211,5.30713 0.42431,3.34375 1.06103,6.58154 2.0166,9.71289 2.75976,9.2876 7.80224,17.62109 15.17969,24.99853 0,0 0.0527,0.0527 0.0527,0.0527 9.87207,9.87207 21.44238,15.604 34.71094,17.19629 0,0 5.46679,-3.76856 5.46679,-3.76856 0,0 0,0 0,0 0,0 -4.72363,-4.56445 -4.72363,-4.56445 0,0 5.41309,-3.66211 5.41309,-3.66211 0,0 -4.72315,-4.56445 -4.72315,-4.56445 0,0 5.46631,-3.60889 5.46631,-3.60889 0,0 -4.72363,-4.56445 -4.72363,-4.56445 0,0 5.41357,-3.66211 5.41357,-3.66211 0,0 -4.61767,-4.51123 -4.61767,-4.51123 z"
           inkscape:connector-curvature="0" />
        <path
           id="path3116"
           style="fill:#f1471d;fill-opacity:1;fill-rule:nonzero;stroke:none"
           d="m 644.8125,-559.10352 c 0,0 -4.72363,-4.56445 -4.72363,-4.56445 0,0 0,-0.0532 0,-0.0532 -5.36035,-0.90186 -10.13721,-3.44971 -14.22412,-7.58936 -3.60889,-3.60937 -5.99756,-7.69629 -7.21827,-12.26025 -0.10595,-0.5835 -0.26562,-1.16797 -0.37109,-1.75195 0,-0.0527 0,-0.10596 0,-0.10596 -0.0537,-0.15918 -0.0537,-0.31836 -0.0537,-0.42432 0,0 -4.45801,-4.56494 -4.45801,-4.56494 0,0 -3.60937,5.4668 -3.60937,5.4668 0,0 -4.56397,-4.72315 -4.56397,-4.72315 0,0 -3.6626,5.4668 -3.6626,5.4668 0,0 -4.56396,-4.72412 -4.56396,-4.72412 0,0 -3.60938,5.41357 -3.60938,5.41357 0,0 -4.61718,-4.72314 -4.61718,-4.72314 0,0 -3.76856,5.41357 -3.76856,5.41357 0.10645,1.0083 0.26514,1.96338 0.42481,2.91895 0,0 0,0.15918 0,0.15918 2.06982,12.04785 7.64258,22.60986 16.77148,31.73877 0.2124,0.21191 0.42481,0.42431 0.63721,0.63623 9.7124,9.44775 21.01709,15.02099 34.02002,16.61279 0,0 5.41406,-3.76807 5.41406,-3.76807 0,0 -4.72363,-4.56494 -4.72363,-4.56494 0,0 0.0532,0 0.0532,0 0,0 5.41309,-3.66211 5.41309,-3.66211 0,0 -4.72315,-4.51123 -4.72315,-4.51123 0,0 5.46631,-3.66162 5.46631,-3.66162 0,0 -4.72363,-4.56445 -4.72363,-4.56445 0,0 5.41406,-3.60938 5.41406,-3.60938 z"
           inkscape:connector-curvature="0" />
        <path
           id="path3118"
           style="fill:#f1471d;fill-opacity:1;fill-rule:nonzero;stroke:none"
           d="m 701.07178,-590.41797 c 0,0 -4.14063,5.09522 -4.14063,5.09522 0,0 -4.08642,-5.09522 -4.08642,-5.09522 0,0 -4.08692,5.09522 -4.08692,5.09522 0,0 -0.0527,0 -0.0527,0 0,0 -4.08692,-5.09522 -4.08692,-5.09522 0,0 -4.08691,5.09522 -4.08691,5.09522 0,0 -0.10596,0 -0.10596,0 0,0 -4.08691,-5.09522 -4.08691,-5.09522 0,0 -4.08643,5.04248 -4.08643,5.04248 0,0 0,40.81445 0,40.81445 0,0.21241 0,0.42432 0,0.63672 0,0 0,0 0,0 0,0 -0.0532,8.27979 -0.0532,8.27979 0,0 0.0532,0 0.0532,0 0,0 4.08643,5.04199 4.08643,5.04199 0,0 4.03369,-4.98877 4.03369,-4.98877 0,0 0.0532,0 0.0532,0 0.0532,0.0527 0.15918,0.15869 0.26514,0.21192 0.0532,0 0.0532,0 0.0532,0 0.0532,0 0.10645,0.0532 0.15918,0.10644 0,0 -0.0527,0.0527 -0.0527,0.0527 0,0 3.76806,4.61767 3.76806,4.61767 0,0 4.08692,-5.04199 4.08692,-5.04199 0,0 0.0527,0 0.0527,0 0,0 1.75196,2.17578 1.75196,2.17578 0.0527,0 0.10546,0 0.10546,0 0,0 -0.0527,0.0532 -0.0527,0.0532 0,0 2.28223,2.81299 2.28223,2.81299 0,0 3.92773,-4.83008 3.92773,-4.83008 0.0527,0 0.10596,-0.0527 0.21192,-0.10595 0,0 0.0532,-0.0527 0.0532,-0.0527 0,0 0.0532,0 0.0532,0 0,0 -0.0532,0.0527 -0.0532,0.0527 0,0 4.03418,4.93603 4.03418,4.93603 0,0 4.08593,-5.04199 4.08593,-5.04199 0,0 0,-49.67822 0,-49.67822 0,0 -4.08593,-5.09522 -4.08593,-5.09522 z"
           inkscape:connector-curvature="0" />
        <path
           id="path3120"
           style="fill:#f1471d;fill-opacity:1;fill-rule:nonzero;stroke:none"
           d="m 712.95996,-579.58984 c 0,0 0.0532,0.10546 0.0532,0.10546 2.01661,12.04786 7.58936,22.66309 16.77149,31.792 0.15918,0.15918 0.37158,0.37158 0.58398,0.58349 9.7124,9.50049 21.07031,15.02051 34.02051,16.6128 0,0 5.4668,-3.71582 5.4668,-3.71582 0,0 -4.72364,-4.56446 -4.72364,-4.56446 0,0 0,-0.0527 0,-0.0527 0,0 5.41309,-3.60889 5.41309,-3.60889 0,0 -4.72314,-4.56445 -4.72314,-4.56445 0,0 5.46679,-3.66211 5.46679,-3.66211 0,0 -4.67041,-4.51123 -4.67041,-4.51123 0,0 5.41309,-3.60938 5.41309,-3.60938 0,0 -4.72363,-4.61767 -4.72363,-4.61767 0,0 0,0 0,0 -5.41309,-0.95508 -10.13721,-3.50244 -14.22364,-7.58936 -3.60937,-3.60888 -6.05029,-7.69629 -7.21826,-12.31347 -0.15918,-0.53077 -0.26562,-1.11426 -0.37158,-1.69825 -0.0527,-0.0532 -0.0527,-0.10644 -0.0527,-0.15918 0,-0.10595 -0.0532,-0.26562 -0.0532,-0.4248 0,0 -4.40527,-4.51123 -4.40527,-4.51123 0,0 -3.66211,5.41357 -3.66211,5.41357 0,0 -4.51123,-4.6709 -4.51123,-4.6709 0,0 -3.66211,5.41407 -3.66211,5.41407 0,0 -4.56494,-4.72364 -4.56494,-4.72364 0,0 -3.66211,5.4668 -3.66211,5.4668 0,0 -4.56397,-4.72363 -4.56397,-4.72363 0,0 -3.76855,5.41357 -3.76855,5.41357 0.10596,0.95508 0.2124,1.91065 0.37158,2.91944 z"
           inkscape:connector-curvature="0" />
        <path
           id="path3122"
           style="fill:#f1471d;fill-opacity:1;fill-rule:nonzero;stroke:none"
           d="m 575.33789,-736.16016 c 0,0 -3.71533,-5.30761 -3.71533,-5.30761 0,0 -4.56445,4.72363 -4.56445,4.72363 0,0 -3.66163,-5.4668 -3.66163,-5.4668 0,0 -4.56445,4.72364 -4.56445,4.72364 0,0 -3.60937,-5.41358 -3.60937,-5.41358 0,0 -4.61768,4.67041 -4.61768,4.67041 0,0 -3.60889,-5.41308 -3.60889,-5.41308 0,0 -4.56494,4.67041 -4.56494,4.67041 0,0 -0.0527,0 -0.0527,0 -0.90186,5.46679 -3.44971,10.29638 -7.58985,14.43652 -4.13964,4.08642 -8.91601,6.63428 -14.33007,7.58887 0,0 -4.72364,4.56494 -4.72364,4.56494 0,0 5.41358,3.66211 5.41358,3.66211 0,0 -4.6709,4.51123 -4.6709,4.51123 0,0 5.46728,3.66211 5.46728,3.66211 0,0 -4.77685,4.56445 -4.77685,4.56445 0,0 5.4668,3.66211 5.4668,3.66211 0,0 -4.72364,4.56445 -4.72364,4.56445 0,0 5.41358,3.71533 5.41358,3.71533 6.95263,-0.79589 13.37451,-2.75976 19.37207,-5.83837 5.52002,-2.86622 10.66797,-6.63428 15.39209,-11.35743 1.22021,-1.27392 2.38818,-2.49463 3.50244,-3.82177 7.80224,-9.02246 12.36621,-19.4253 13.74658,-31.10157 z"
           inkscape:connector-curvature="0" />
        <path
           id="path3124"
           style="fill:#f1471d;fill-opacity:1;fill-rule:nonzero;stroke:none"
           d="m 488.61377,-585.90625 c 0,-0.0532 0,-0.10645 0,-0.10645 0,-0.15869 -0.0527,-0.31835 -0.0527,-0.42431 0,0 -4.40528,-4.56445 -4.40528,-4.56445 0,0 -0.2124,0.31835 -0.2124,0.31835 0,0 -0.0532,-0.0527 -0.0532,-0.0527 0,0 -3.44971,5.09473 -3.44971,5.09473 0,0 -4.51123,-4.61719 -4.51123,-4.61719 0,0 -0.15918,0.26514 -0.15918,0.26514 0,0 -0.0532,-0.0532 -0.0532,-0.0532 0,0 -3.44971,5.14893 -3.44971,5.14893 0,0 -4.51123,-4.6709 -4.51123,-4.6709 0,0 -0.2124,0.31885 -0.2124,0.31885 0,0 -0.0532,-0.0537 -0.0532,-0.0537 0,0 -3.4497,5.14892 -3.4497,5.14892 0,0 -4.51172,-4.67138 -4.51172,-4.67138 0,0 -0.21192,0.26562 -0.21192,0.26562 0,0 -0.0532,-0.0527 -0.0532,-0.0527 0,0 -3.66211,5.30713 -3.66211,5.30713 0.42432,3.34375 1.06153,6.58105 2.01709,9.71289 2.75977,9.28808 7.80176,17.6206 15.1792,24.99804 0,0 0.0527,0.0532 0.0527,0.0532 9.87207,9.87158 21.44238,15.604 34.71142,17.1958 0,0 5.46631,-3.76856 5.46631,-3.76856 0,0 0,0 0,0 0,0 -4.72363,-4.56396 -4.72363,-4.56396 0,0 5.41357,-3.66211 5.41357,-3.66211 0,0 -4.72363,-4.56446 -4.72363,-4.56446 0,0 5.46631,-3.60888 5.46631,-3.60888 0,0 -4.72364,-4.56494 -4.72364,-4.56494 0,0 5.41358,-3.66211 5.41358,-3.66211 0,0 -4.61719,-4.51074 -4.61719,-4.51074 0,0 -0.0532,-0.0532 -0.0532,-0.0532 -5.41358,-0.95556 -10.13721,-3.50342 -14.27686,-7.58984 -3.55615,-3.60938 -5.99756,-7.69531 -7.16504,-12.25977 -0.15966,-0.58447 -0.31836,-1.16845 -0.4248,-1.75195 z"
           inkscape:connector-curvature="0" />
        <path
           id="path3126"
           style="fill:#f1471d;fill-opacity:1;fill-rule:nonzero;stroke:none"
           d="m 901.32178,-693.64746 c 5.89111,0.0532 11.03955,-1.69824 15.49756,-5.14844 5.94384,0.37158 11.35791,0.90235 16.1875,1.69824 6.26318,0.95557 10.24365,2.12305 12.04785,3.39698 0.74365,0.53125 1.11523,1.06201 1.11523,1.64502 0,1.53955 -2.65429,2.8667 -8.01465,4.0874 -1.48632,0.31836 -3.2373,0.63672 -5.14843,0.95508 -8.75684,1.37988 -19.31885,2.06982 -31.68506,2.06982 -12.41992,0 -22.98145,-0.68994 -31.73877,-2.06982 -1.69873,-0.26563 -3.18457,-0.53077 -4.56446,-0.84912 -5.73193,-1.2212 -8.59814,-2.60059 -8.59814,-4.19336 0,-0.74268 0.58398,-1.3794 1.69873,-2.01661 1.96387,-1.11425 5.78467,-2.17578 11.46387,-3.02539 4.83008,-0.79589 10.24316,-1.32666 16.24072,-1.69824 0.42481,0.37158 0.84912,0.68994 1.27393,1.0083 4.13964,2.75977 8.86328,4.19336 14.22412,4.14014 z m -6.4751,-16.24121 c -0.63721,-0.47754 -1.16797,-0.95508 -1.69873,-1.48584 -0.10596,-0.10596 -0.15869,-0.21192 -0.26563,-0.26563 -0.26513,-0.31836 -0.58349,-0.63672 -0.84863,-1.0083 -0.58398,-0.68994 -1.11523,-1.43261 -1.53955,-2.12304 -2.65332,-4.19288 -3.66211,-8.96924 -3.13135,-14.32959 0.90235,-8.33301 5.51953,-18.15186 13.95899,-29.35059 14.64843,19.53174 17.88623,34.65771 9.65967,45.37891 -0.53125,0.63671 -1.11524,1.32666 -1.69874,1.96337 -2.229,2.07032 -4.83007,3.07862 -7.96093,3.07862 -2.44141,0.0527 -4.61768,-0.5835 -6.4751,-1.85791 z m 24.52051,8.70459 c 1.06103,-1.16797 2.06933,-2.33545 3.0249,-3.55615 17.93896,-23.35254 10.93359,-56.36524 -21.07031,-98.98389 -18.41748,24.52051 -28.60742,45.85644 -30.46533,64.00781 -1.22071,11.72949 1.06152,22.18506 6.79394,31.26074 1.00879,1.59229 2.12305,3.18506 3.34375,4.6709 0.5835,0.7959 1.16748,1.53906 1.85742,2.22901 0.10596,0.15918 0.2124,0.26562 0.3711,0.37158 -9.02246,0.47754 -17.08936,1.2207 -24.25489,2.38818 -11.67627,1.85791 -17.51416,4.08643 -17.51416,6.74024 0,2.60107 5.83789,4.8833 17.51416,6.74072 11.67676,1.85791 25.79493,2.76025 42.35401,2.76025 16.50586,0 30.62402,-0.90234 42.30029,-2.76025 11.67627,-1.85742 17.51465,-4.13965 17.51465,-6.74072 0,-2.65381 -5.83838,-4.88233 -17.51465,-6.74024 -7.16504,-1.16748 -15.23242,-1.91064 -24.25488,-2.38818 z"
           inkscape:connector-curvature="0" />
      </g>
    </g>
  </g>
</svg>
