<?xml version="1.0" encoding="UTF-8" standalone="no"?>
<!-- Created with Inkscape (http://www.inkscape.org/) -->

<svg
   width="38.987511mm"
   height="38.962837mm"
   viewBox="0 0 38.987511 38.962837"
   version="1.1"
   id="svg1"
   xml:space="preserve"
   xmlns="http://www.w3.org/2000/svg"
   xmlns:svg="http://www.w3.org/2000/svg"><defs
     id="defs1" /><path
     style="display:inline;fill:#4b6b6d;fill-opacity:1;stroke:none;stroke-width:1.34781;stroke-dasharray:none;stroke-opacity:1"
     id="path9-6-8"
     d="M 18.90761,37.841761 A 18.907597,18.907597 0 0 1 5.53792,32.303854 18.907597,18.907597 0 0 1 1.335144e-5,18.934164 H 18.90761 Z" /><path
     style="display:inline;fill:#ffffff;fill-opacity:1;stroke:none;stroke-width:1.34781;stroke-dasharray:none;stroke-opacity:1"
     id="path9-6-8-2"
     d="M 0.29115105,20.566565 A 18.907597,18.907597 0 0 1 19.198748,1.658968 v 18.907597 z" /><path
     style="display:inline;fill:#f88a3b;fill-opacity:1;stroke:none;stroke-width:1.34781;stroke-dasharray:none;stroke-opacity:1"
     id="path9-6-7"
     d="M 18.519533,1.0288715 A 18.907597,18.907597 0 0 1 37.42713,19.936468 H 18.519533 Z" /><path
     style="display:inline;fill:#ffffff;fill-opacity:1;stroke:none;stroke-width:1.34781;stroke-dasharray:none;stroke-opacity:1"
     id="path9-6-7-5"
     d="M 37.605215,19.893896 A 18.907597,18.907597 0 0 1 18.697618,38.801493 V 19.893896 Z" /><circle
     style="fill:#ffffe5;fill-opacity:0;stroke:#000000;stroke-width:1.727;stroke-dasharray:none;stroke-opacity:1"
     id="path9"
     cx="19.506105"
     cy="19.481413"
     r="18.617916" /><ellipse
     style="fill:#f88a3b;fill-opacity:1;stroke:none;stroke-width:0.843124;stroke-dasharray:none;stroke-opacity:1"
     id="path9-6"
     cx="18.963793"
     cy="19.4839"
     rx="11.9575"
     ry="12.8795" /><ellipse
     style="fill:#ffffff;fill-opacity:1;stroke:none;stroke-width:0.181897;stroke-dasharray:none;stroke-opacity:1"
     id="path9-6-2-7"
     cx="26.185459"
     cy="-14.508818"
     rx="2.5383928"
     ry="2.8238728"
     transform="rotate(45)" /><ellipse
     style="fill:#ffffff;fill-opacity:1;stroke:none;stroke-width:0.227872;stroke-dasharray:none;stroke-opacity:1"
     id="path9-6-2-7-8"
     cx="30.129658"
     cy="-5.7102489"
     rx="3.1799977"
     ry="3.5376356"
     transform="rotate(45)" /><ellipse
     style="fill:#ffffff;fill-opacity:1;stroke:none;stroke-width:0.215066;stroke-dasharray:none;stroke-opacity:1"
     id="path9-6-2-7-8-0"
     cx="3.3229847"
     cy="-21.10677"
     rx="3.0012903"
     ry="3.3388298"
     transform="rotate(135)" /><path
     id="path9-6-2-7-8-9"
     style="fill:#ffffff;stroke-width:0.357725"
     d="m 26.435839,25.777777 c 1.64055,1.700973 -3.66428,7.367082 -7.29038,7.367082 -3.62611,0 -8.04037,-3.544123 -7.23464,-5.740623 3.6795,-10.030652 3.77578,-2.379267 7.40189,-2.379267 3.2916,0 1.21365,-5.37434 7.12313,0.752808 z" /><path
     style="display:inline;fill:#0c1619"
     d="m 18.105409,38.091056 c -0.43074,-0.0146 -0.78317,-0.0632 -0.78317,-0.10799 0,-0.0448 -0.12382,-0.0816 -0.27516,-0.0818 -16.19771042,-0.0162 -25.4293604,-28.7562705 -4.30351,-36.1039205 1.41111,-0.49079 3.55154,-0.97878994 4.2964,-0.97953994 0.14746,-1.5e-4 0.28208,-0.0422 0.29916,-0.0934 0.0213,-0.0639 0.60122,-0.0931 1.84573,-0.0931 1.24451,0 1.82444,0.0293 1.84573,0.0931 0.0171,0.0512 0.1517,0.0933 0.29916,0.0934 1.23145,0.001 4.25059,0.84888994 6.05759,1.70070994 5.73832,2.70503 10.04612,8.5676105 10.65036,14.4943005 0.0295,0.28952 0.0899,0.55015 0.13428,0.5792 0.10693,0.0701 0.10693,3.465 0,3.53505 -0.0443,0.029 -0.10476,0.28968 -0.13428,0.57919 -0.54011,5.29769 -4.15972,10.77283 -9.00841,13.62644 -2.29836,1.35266 -5.93785,2.56679 -7.69954,2.56857 -0.14746,1.5e-4 -0.28081,0.0326 -0.29633,0.0721 -0.0332,0.0844 -1.80563,0.15564 -2.92806,0.11766 z m 5.99057,-0.777274 c 10.70421,-0.243261 16.46538,-12.966085 13.34419,-23.001665 -1.16298,-3.73932 -5.21659,-7.6912115 -5.21659,-5.6756615 0,1.13923 -0.46666,2.4152505 -1.28208,3.5057005 -0.3327,0.44492 -0.3327,0.44492 0.1693,1.48167 1.37317,2.8359 3.07374,7.59892 2.95821,8.28544 -0.0138,0.082 -0.80615,0.94635 -1.76077,1.92073 -2.34418,2.39272 -4.6929,4.84631 -5.77922,6.03728 -1.99559,2.18782 -4.82661,3.988518 -6.86148,3.88504 -0.17671,-0.009 -0.63845,-0.0274 -0.76419,0.0365 -0.96494,-0.04876 -1.75092,-0.02693 -2.79648,-0.558674 -1.89955,-0.96607 -2.85345,-1.74737 -5.15046,-4.21857 -3.3123304,-3.56352 -4.8510204,-5.19696 -5.7584504,-6.11303 -0.97582,-0.98512 -1.0278,-1.35029 -0.37113,-2.60763 0.10945,-0.20955 0.45389,-1.04775 0.76543,-1.86267 0.75292,-1.96948 1.58944,-4.00867 2.04557,-4.98654 0.45274,-0.97059 0.45376,-0.87533 -0.0166,-1.53743 -0.80045,-1.12684 -1.12021,-1.9847305 -1.20896,-3.2435505 -0.0813,-1.15349 -0.59737,-0.82682 -2.00755,1.27081 -7.18839,10.6926505 0.77693,26.6430965 13.6191604,27.4430065 0.47556,0.0296 0.92181,1.222044 0.61361,0.356379 1.08495,1.240013 0.85713,-0.312565 2.13163,-0.341529 z m -3.4301,-5.142916 c 0.55527,-0.20812 0.57222,-0.36046 0.0662,-0.59464 -0.22228,-0.10286 -0.64469,-0.39813 -0.9387,-0.65616 -0.64011,-0.56178 -0.53392,-0.55339 -1.08156,-0.0855 -0.24698,0.211 -0.66066,0.47722 -0.9193,0.5916 -1.39109,0.6152 1.33432,1.32157 2.87339,0.74472 z m -3.66391,-1.69903 c 1.97261,-0.88054 2.05403,-2.04095 0.26636,-3.79625 -1.35577,-1.3312 -1.38499,-1.38852 -1.38672,-2.72012 -0.002,-1.55191 -0.0884,-1.55786 -1.40787,-0.097 -2.98628,3.30612 -1.10239,8.23405 2.52823,6.6134 z m -2.3011,-1.39156 c -0.42698,-0.45831 -0.15218,-0.8307 0.61302,-0.8307 0.5176,0 0.73835,0.15877 0.73835,0.53103 0,0.47404 -0.98535,0.69254 -1.35137,0.29967 z m -0.14229,-2.02371 c -0.44501,-0.12895 -0.48615,-0.76645 -0.0599,-0.9285 0.78266,-0.29757 1.45309,0.28235 0.93053,0.80492 -0.22513,0.22513 -0.42315,0.25324 -0.87062,0.12358 z m 9.033,3.53351 c 2.69586,-0.9641 2.80588,-4.25058 0.23265,-6.94945 -1.25045,-1.31151 -1.25265,-1.31098 -1.25265,0.29947 0,1.47641 0.0484,1.38412 -1.50466,2.87067 -2.11655,2.02596 -0.27617,4.78094 2.52466,3.77931 z m -0.85067,-1.49383 c -0.41507,-0.41507 -0.12861,-0.84667 0.56195,-0.84667 0.57271,0 0.79272,0.10764 0.79272,0.38783 0,0.54532 -0.94732,0.86619 -1.35467,0.45884 z m 0.44217,-2.07914 c -0.46829,-0.328 -0.13227,-0.96886 0.508,-0.96886 0.72989,0 0.90161,0.77099 0.22432,1.00709 -0.36077,0.12577 -0.50925,0.11802 -0.73232,-0.0382 z m -11.73598,-0.63594 c 0.24325,-1.30246 0.68046,-2.01566 2.43593,-3.97359 1.38915,-1.54936 1.41714,-1.69768 0.29872,-1.58293 -2.73398,0.28051 -5.0844804,-1.84225 -5.3019404,-4.78823 -0.0977,-1.32329 -1.07294,0.0173 -1.18564,1.62983 -0.18864,2.69882 1.36232,4.39488 4.0246704,4.4012 0.6196,0.001 0.6196,0.001 0.43122,0.27663 -0.7894,1.15308 -1.6345,1.49627 -3.0184304,1.22576 -0.87177,-0.17039 -0.7285,0.1564 0.8872604,2.02384 0.39762,0.45956 0.81843,0.96072 0.93512,1.11369 0.2855,0.37424 0.3731,0.31628 0.49309,-0.3262 z m 16.87281,-0.52342 c 2.01031,-2.27335 2.18295,-2.61666 1.15971,-2.30625 -1.14258,0.34661 -1.96278,0.11084 -2.78054,-0.7993 -0.52124,-0.58012 -0.51452,-0.59862 0.21746,-0.59862 3.03331,0 4.92816,-3.09602 3.53716,-5.77939 -0.64174,-1.23799 -0.76627,-1.28139 -0.76883,-0.26794 -0.006,2.56213 -2.32151,4.69267 -5.09908,4.69267 -0.82085,0 -0.91355,0.0154 -0.91355,0.15132 0,0.26348 0.81374,1.38091 1.72901,2.3743 0.96905,1.05175 1.46854,1.87612 1.70863,2.81995 0.2234,0.87818 0.16836,0.89122 1.21003,-0.28674 z m -8.42124,0.41818 c 0.74869,-0.67003 0.68145,-0.73568 -0.75344,-0.73568 -1.42023,0 -1.44737,0.087 -0.29899,0.95856 0.40476,0.30718 0.47731,0.29182 1.05243,-0.22288 z m 1.1806,-2.07313 c 0.0229,-0.0371 0.0633,-1.24678 0.0897,-2.68817 0.10733,-5.863 1.89076,-7.81816 7.1388,-7.82625 1.10756,-0.002 1.08343,0.0288 0.64039,-0.80857 -1.76838,-3.3422905 -4.82631,-4.8655605 -9.76752,-4.8655605 -4.58166,0 -7.99139,1.69432 -9.5140004,4.7275905 -0.51163,1.01924 -0.59707,0.95029 1.2226904,0.98673 2.79566,0.056 4.10923,0.61046 5.18108,2.18697 0.95715,1.4078 1.06704,1.92871 1.14633,5.43371 0.0632,2.794 0.0632,2.794 1.8412,2.83893 0.9779,0.0247 1.82338,0.0533 1.87884,0.0635 0.0555,0.0102 0.11959,-0.0118 0.14252,-0.0489 z m -5.55619,-9.59829 c -1.27743,-0.46656 2.55211,-2.44237 4.24884,-2.19215 1.25873,0.18562 3.39232,1.37019 3.39232,1.88341 0,0.28884 -1.12944,0.31784 -2.34018,0.0601 -1.23011,-0.26188 -2.05802,-0.24168 -3.30446,0.0806 -1.0558,0.27302 -1.58671,0.3177 -1.99652,0.16802 z m 9.54616,-2.14021 c -0.18626,-0.0608 -0.64389,-0.24346 -1.01694,-0.40581 -3.39602,-1.47791 -6.01896,-1.49481 -9.45765,-0.0609 -2.01379,0.83971 -2.46688,0.679 -1.31524,-0.46651 1.16291,-1.15672 3.508,-2.2926005 5.32677,-2.5801105 0.47398,-0.0749 1.8299,0.17015 2.6954,0.48717 0.25611,0.0938 0.68139,0.23102 0.94505,0.3049 1.23797,0.3468905 2.25759,0.9695305 3.18245,1.9434005 0.83594,0.88025 0.7201,1.13066 -0.35984,0.77791 z m -17.9070004,9.42394 c 0,-0.693 -0.46506,-1.49942 -0.72038,-1.24914 -0.30706,0.30099 -0.26765,0.81428 0.0907,1.18125 0.40599,0.41577 0.62969,0.43989 0.62969,0.0679 z m 25.0457904,-0.69369 c 0.029,-0.245 -0.1034,-0.31039 -0.18706,-0.0924 -0.0846,0.22043 -0.0584,0.39049 0.0544,0.35344 0.0582,-0.0191 0.11789,-0.13659 0.13262,-0.26106 z m -17.32549,-1.96517 c 0.81504,-0.17132 0.85409,-0.21583 0.74312,-0.84689 -0.1552,-0.88265 -0.52132,-1.32111 -0.70452,-0.84373 -0.52492,1.36794 -2.57814,0.14658 -2.5304,-1.50521 0.0215,-0.7437 0.0215,-0.7437 -0.889,-0.71967 -0.9105,0.024 -0.9105,0.024 -0.90257,0.6167 0.0315,2.35765 1.90325,3.79913 4.28337,3.2988 z m 11.03337,-0.15282 c 1.85097,-0.85105 2.95882,-3.8589 1.397,-3.7929 -0.99589,0.0421 -1.016,0.0578 -1.016,0.7925 0,1.59954 -1.59013,2.55649 -2.63153,1.58368 -0.44476,-0.41547 -0.61775,-0.26478 -0.84133,0.73289 -0.20246,0.90341 1.69942,1.32406 3.09186,0.68383 z m -11.51082,-2.38013 c 0.27448,-0.27448 0.26214,-0.42945 -0.0575,-0.72136 -0.66738,-0.60956 -1.39417,0.0447 -0.75722,0.68169 0.30204,0.30204 0.5407,0.31367 0.81469,0.0397 z m 10.668,0 c 0.37913,-0.37912 0.18656,-1.14685 -0.28766,-1.14685 -0.18249,0 -0.67821,0.31969 -0.80021,0.51606 -0.33656,0.54172 0.62146,1.0972 1.08787,0.63079 z M 9.8151786,9.9429255 c 0.5491204,-0.64625 1.1440704,-1.14644 1.8132304,-1.52443 0.71143,-0.40186 0.23574,-0.94372 -1.35371,-1.54199 -1.9076204,-0.71803 -2.2989704,-0.60126 -2.3375404,0.69746 -0.0559,1.8838 0.70538,3.8935305 1.20952,3.1928705 0.096,-0.13344 0.39683,-0.5042 0.6685,-0.8239105 z M 29.789679,10.660076 c 0.58031,-0.60741 0.9099,-1.8449905 0.9099,-3.4166105 0,-0.9279 0.0196,-0.91559 -1.15823,-0.72613 -2.50714,0.40329 -3.56941,1.3017 -2.4206,2.04724 0.81973,0.53199 1.61639,1.2715 2.0123,1.8679605 0.35368,0.53285 0.36214,0.53578 0.65663,0.22754 z M 14.909239,6.9618155 c 2.94412,-0.76206 7.94671,-0.68698 9.66341,0.14502 0.35008,0.16967 0.35008,0.16967 0.84667,-0.33418 0.58028,-0.58877 1.67507,-1.16948 2.82146,-1.4966 0.93258,-0.26611 0.93031,-0.2903 -0.0898,-0.95869 -5.18828,-3.39939994 -12.93904,-3.36353994 -18.2638604,0.0845 -0.78569,0.50877 -0.76941,0.58899 0.1844404,0.90897 1.33523,0.4479 2.46744,1.04515 3.18668,1.68098 0.34156,0.30195 0.37052,0.30142 1.651,-0.03 z"
     id="path5-0" /></svg>
